<?xml version="1.0" encoding="UTF-8" standalone="no"?>
<!DOCTYPE svg PUBLIC "-//W3C//DTD SVG 1.1//EN" "http://www.w3.org/Graphics/SVG/1.1/DTD/svg11.dtd">
<svg width="100%" height="100%" viewBox="0 0 500 750" version="1.1" xmlns="http://www.w3.org/2000/svg" xmlns:xlink="http://www.w3.org/1999/xlink" xml:space="preserve" xmlns:serif="http://www.serif.com/" style="fill-rule:evenodd;clip-rule:evenodd;stroke-linejoin:round;stroke-miterlimit:2;">
    <g transform="matrix(1.05674,0,0,1.48304,-1251.67,1351.07)">
        <g transform="matrix(0.599551,0,0,0.427212,759.525,-1230.69)">
            <g transform="matrix(76.5839,-86.8177,86.8177,76.5839,875.125,1119.23)">
                <path d="M0.383,-0.357C0.411,-0.316 0.425,-0.267 0.425,-0.21C0.425,-0.183 0.421,-0.157 0.414,-0.132C0.407,-0.107 0.396,-0.084 0.383,-0.063C0.368,-0.042 0.35,-0.025 0.331,-0.013C0.311,-0.001 0.29,0.005 0.269,0.005L0.127,0.005C0.126,0.005 0.126,0.005 0.125,0.004C0.124,0.005 0.123,0.005 0.122,0.005C0.112,0.005 0.104,0.002 0.097,-0.006C0.09,-0.012 0.087,-0.021 0.087,-0.031L0.087,-0.705C0.087,-0.714 0.09,-0.723 0.097,-0.73C0.104,-0.737 0.112,-0.74 0.122,-0.74L0.251,-0.74C0.292,-0.74 0.326,-0.719 0.354,-0.678C0.38,-0.641 0.393,-0.597 0.393,-0.547C0.393,-0.523 0.39,-0.5 0.383,-0.477C0.376,-0.454 0.367,-0.434 0.354,-0.416C0.35,-0.41 0.346,-0.405 0.341,-0.4C0.356,-0.389 0.37,-0.375 0.383,-0.357ZM0.322,-0.547C0.322,-0.564 0.32,-0.58 0.316,-0.595C0.311,-0.61 0.306,-0.623 0.299,-0.634C0.292,-0.645 0.285,-0.653 0.276,-0.66C0.267,-0.666 0.259,-0.669 0.251,-0.669L0.157,-0.669L0.157,-0.425L0.251,-0.425C0.259,-0.425 0.267,-0.428 0.276,-0.435C0.285,-0.441 0.292,-0.45 0.299,-0.461C0.306,-0.472 0.311,-0.484 0.316,-0.499C0.32,-0.514 0.322,-0.53 0.322,-0.547ZM0.324,-0.103C0.334,-0.118 0.342,-0.134 0.347,-0.153C0.352,-0.172 0.355,-0.191 0.355,-0.21C0.355,-0.23 0.352,-0.249 0.347,-0.268C0.342,-0.287 0.334,-0.303 0.324,-0.317C0.307,-0.342 0.289,-0.354 0.269,-0.354L0.157,-0.354L0.157,-0.066L0.269,-0.066C0.278,-0.066 0.288,-0.069 0.298,-0.076C0.307,-0.083 0.316,-0.092 0.324,-0.103Z" style="fill:rgb(228,249,245);fill-rule:nonzero;"/>
            </g>
            <g transform="matrix(88.5083,-74.6237,74.6237,88.5083,919.775,1071.9)">
                <path d="M0.09,-0.033C0.09,-0.022 0.086,-0.013 0.079,-0.006C0.072,0.002 0.063,0.006 0.052,0.006C0.041,0.006 0.031,0.002 0.024,-0.006C0.017,-0.013 0.013,-0.022 0.013,-0.033C0.013,-0.044 0.017,-0.053 0.024,-0.061C0.031,-0.068 0.041,-0.072 0.052,-0.072C0.063,-0.072 0.072,-0.068 0.079,-0.061C0.086,-0.053 0.09,-0.044 0.09,-0.033Z" style="fill:rgb(228,249,245);fill-rule:nonzero;"/>
            </g>
            <g transform="matrix(103.895,-51.071,51.071,103.895,957.932,1042.33)">
                <path d="M0.366,-0.735C0.375,-0.732 0.382,-0.726 0.386,-0.717C0.389,-0.708 0.389,-0.699 0.386,-0.69L0.259,-0.37L0.259,-0.03C0.259,-0.02 0.256,-0.012 0.249,-0.005C0.242,0.002 0.234,0.005 0.224,0.005C0.215,0.005 0.206,0.002 0.2,-0.005C0.193,-0.012 0.189,-0.02 0.189,-0.03L0.189,-0.37L0.062,-0.69C0.059,-0.699 0.059,-0.708 0.063,-0.717C0.066,-0.726 0.073,-0.732 0.082,-0.735C0.091,-0.739 0.1,-0.739 0.11,-0.736C0.118,-0.732 0.125,-0.725 0.128,-0.716L0.224,-0.472L0.32,-0.716C0.323,-0.725 0.33,-0.732 0.339,-0.736C0.347,-0.739 0.357,-0.739 0.366,-0.735Z" style="fill:rgb(228,249,245);fill-rule:nonzero;"/>
            </g>
            <g transform="matrix(114.649,-16.0635,16.0635,114.649,1038.84,1008.81)">
                <path d="M0.227,0.017C0.176,0.017 0.137,0.001 0.108,-0.031C0.086,-0.055 0.072,-0.087 0.066,-0.126C0.064,-0.138 0.063,-0.148 0.063,-0.157C0.063,-0.166 0.063,-0.172 0.064,-0.175L0.064,-0.566C0.064,-0.597 0.069,-0.623 0.079,-0.646C0.088,-0.669 0.101,-0.688 0.116,-0.703C0.131,-0.717 0.149,-0.729 0.168,-0.736C0.187,-0.743 0.207,-0.746 0.227,-0.746C0.239,-0.746 0.255,-0.744 0.276,-0.739C0.297,-0.734 0.317,-0.723 0.337,-0.706C0.344,-0.7 0.35,-0.693 0.357,-0.685C0.364,-0.677 0.37,-0.667 0.375,-0.656C0.38,-0.644 0.385,-0.631 0.389,-0.616C0.392,-0.601 0.394,-0.585 0.394,-0.566L0.394,-0.152C0.394,-0.143 0.393,-0.133 0.391,-0.122C0.384,-0.085 0.37,-0.055 0.348,-0.031C0.318,0.001 0.278,0.017 0.227,0.017ZM0.134,-0.171L0.134,-0.16C0.134,-0.153 0.135,-0.145 0.136,-0.136C0.137,-0.127 0.14,-0.117 0.144,-0.106C0.147,-0.095 0.153,-0.086 0.161,-0.078C0.176,-0.062 0.198,-0.054 0.227,-0.054C0.257,-0.054 0.28,-0.062 0.296,-0.079C0.303,-0.087 0.309,-0.096 0.313,-0.106C0.317,-0.115 0.32,-0.124 0.322,-0.133C0.323,-0.142 0.324,-0.149 0.324,-0.155L0.324,-0.165L0.324,-0.167L0.324,-0.566C0.324,-0.591 0.32,-0.611 0.312,-0.626C0.304,-0.64 0.295,-0.651 0.284,-0.658C0.273,-0.665 0.263,-0.67 0.252,-0.672C0.241,-0.674 0.232,-0.675 0.227,-0.675C0.202,-0.675 0.182,-0.667 0.165,-0.652C0.144,-0.633 0.134,-0.604 0.134,-0.566L0.134,-0.171Z" style="fill:rgb(228,249,245);fill-rule:nonzero;"/>
            </g>
            <g transform="matrix(113.764,21.452,-21.452,113.764,1127.02,1001.8)">
                <path d="M0.252,0.015C0.202,0.015 0.163,-0.001 0.134,-0.033C0.111,-0.058 0.097,-0.09 0.092,-0.128C0.09,-0.14 0.089,-0.15 0.089,-0.159L0.089,-0.177L0.089,-0.704C0.089,-0.713 0.092,-0.721 0.1,-0.729C0.107,-0.736 0.115,-0.739 0.124,-0.739C0.134,-0.739 0.142,-0.736 0.15,-0.729C0.157,-0.721 0.16,-0.713 0.16,-0.704L0.16,-0.173C0.16,-0.172 0.16,-0.169 0.16,-0.162C0.159,-0.155 0.16,-0.147 0.162,-0.138C0.163,-0.129 0.166,-0.119 0.17,-0.108C0.173,-0.097 0.179,-0.088 0.186,-0.08C0.201,-0.064 0.223,-0.056 0.252,-0.056C0.283,-0.056 0.306,-0.064 0.322,-0.081C0.329,-0.089 0.335,-0.098 0.339,-0.108C0.343,-0.117 0.346,-0.127 0.347,-0.136C0.349,-0.146 0.35,-0.156 0.349,-0.167L0.349,-0.17L0.349,-0.703C0.349,-0.713 0.353,-0.721 0.36,-0.729C0.367,-0.736 0.375,-0.739 0.385,-0.739C0.394,-0.739 0.403,-0.736 0.41,-0.729C0.417,-0.721 0.42,-0.713 0.42,-0.703L0.42,-0.17C0.42,-0.167 0.42,-0.162 0.42,-0.154C0.419,-0.145 0.418,-0.135 0.416,-0.124C0.41,-0.087 0.396,-0.057 0.373,-0.033C0.344,-0.001 0.303,0.015 0.252,0.015Z" style="fill:rgb(228,249,245);fill-rule:nonzero;"/>
            </g>
            <g transform="matrix(100.085,58.1837,-58.1837,100.085,1218.15,1025.04)">
                <path d="M0.43,-0.009C0.43,-0.009 0.43,-0.009 0.429,-0.008C0.428,-0.008 0.428,-0.008 0.428,-0.007L0.427,-0.007C0.427,-0.007 0.427,-0.007 0.426,-0.006C0.426,-0.005 0.426,-0.005 0.425,-0.005L0.424,-0.004L0.423,-0.004C0.423,-0.003 0.423,-0.003 0.422,-0.003L0.421,-0.003L0.421,-0.002L0.42,-0.002L0.419,-0.001C0.416,0 0.414,0.001 0.411,0.001C0.41,0.002 0.407,0.002 0.404,0.002L0.403,0.002L0.402,0.002L0.401,0.002L0.399,0.002C0.398,0.002 0.397,0.002 0.396,0.001L0.394,0.001C0.393,0 0.392,0 0.392,0C0.391,0 0.39,0 0.389,-0.001C0.388,-0.002 0.388,-0.002 0.387,-0.002C0.386,-0.002 0.386,-0.002 0.385,-0.003L0.384,-0.004C0.384,-0.004 0.384,-0.004 0.383,-0.005L0.382,-0.005C0.382,-0.006 0.382,-0.006 0.381,-0.006C0.381,-0.006 0.381,-0.006 0.38,-0.007L0.379,-0.008L0.378,-0.009L0.377,-0.01C0.376,-0.011 0.376,-0.011 0.376,-0.012C0.375,-0.012 0.375,-0.012 0.375,-0.013L0.374,-0.014C0.373,-0.015 0.373,-0.016 0.373,-0.017C0.372,-0.018 0.372,-0.018 0.372,-0.019C0.372,-0.019 0.372,-0.019 0.371,-0.02L0.147,-0.536L0.147,-0.033C0.147,-0.024 0.144,-0.016 0.137,-0.009C0.13,-0.002 0.122,0.002 0.112,0.002C0.103,0.002 0.095,-0.002 0.088,-0.009C0.081,-0.016 0.077,-0.024 0.077,-0.033L0.077,-0.706L0.077,-0.708L0.077,-0.709L0.077,-0.71L0.077,-0.711L0.077,-0.712L0.077,-0.713L0.078,-0.713L0.078,-0.715L0.078,-0.716L0.078,-0.717C0.078,-0.717 0.078,-0.717 0.079,-0.718L0.079,-0.72C0.08,-0.72 0.08,-0.72 0.08,-0.721C0.08,-0.722 0.08,-0.722 0.081,-0.722C0.081,-0.722 0.081,-0.722 0.081,-0.723L0.081,-0.724L0.082,-0.724L0.082,-0.725C0.082,-0.726 0.082,-0.726 0.083,-0.726L0.083,-0.727C0.083,-0.727 0.083,-0.727 0.084,-0.728L0.085,-0.729C0.085,-0.73 0.085,-0.73 0.086,-0.73C0.086,-0.731 0.086,-0.731 0.087,-0.731C0.087,-0.731 0.087,-0.731 0.087,-0.732C0.088,-0.732 0.088,-0.732 0.088,-0.733L0.089,-0.733L0.09,-0.734L0.091,-0.735C0.092,-0.735 0.092,-0.735 0.092,-0.736L0.093,-0.736L0.094,-0.737L0.095,-0.737L0.096,-0.738L0.097,-0.738C0.098,-0.739 0.1,-0.74 0.101,-0.74C0.102,-0.74 0.104,-0.74 0.105,-0.741L0.106,-0.741C0.107,-0.742 0.11,-0.742 0.114,-0.742L0.117,-0.742L0.12,-0.741L0.124,-0.74L0.13,-0.737L0.133,-0.735L0.137,-0.732L0.139,-0.729L0.141,-0.728L0.142,-0.725L0.145,-0.72L0.369,-0.203L0.369,-0.707C0.369,-0.716 0.372,-0.724 0.379,-0.732C0.386,-0.739 0.394,-0.742 0.404,-0.742C0.413,-0.742 0.422,-0.739 0.429,-0.732C0.436,-0.724 0.439,-0.716 0.439,-0.707L0.439,-0.027C0.439,-0.027 0.439,-0.027 0.438,-0.026L0.438,-0.023L0.437,-0.022L0.437,-0.02C0.436,-0.02 0.436,-0.02 0.436,-0.019L0.436,-0.018L0.435,-0.017L0.435,-0.016C0.434,-0.016 0.434,-0.016 0.434,-0.015L0.434,-0.014L0.433,-0.014L0.433,-0.013L0.432,-0.012C0.432,-0.011 0.432,-0.011 0.431,-0.011C0.431,-0.01 0.431,-0.01 0.431,-0.01C0.43,-0.01 0.43,-0.01 0.43,-0.009Z" style="fill:rgb(228,249,245);fill-rule:nonzero;"/>
            </g>
            <g transform="matrix(76.065,87.2727,-87.2727,76.065,1296.57,1077.76)">
                <path d="M0.233,0.014C0.182,0.014 0.143,-0.002 0.115,-0.034C0.092,-0.057 0.078,-0.089 0.072,-0.129C0.071,-0.14 0.07,-0.15 0.07,-0.159C0.069,-0.168 0.069,-0.174 0.07,-0.177L0.07,-0.569C0.07,-0.6 0.075,-0.626 0.085,-0.649C0.094,-0.672 0.107,-0.69 0.122,-0.705C0.137,-0.72 0.155,-0.731 0.174,-0.738C0.193,-0.745 0.213,-0.748 0.233,-0.748C0.276,-0.748 0.312,-0.735 0.342,-0.708C0.355,-0.697 0.367,-0.68 0.379,-0.658C0.39,-0.635 0.396,-0.605 0.396,-0.568C0.396,-0.559 0.393,-0.551 0.386,-0.544C0.379,-0.537 0.37,-0.533 0.361,-0.533C0.351,-0.533 0.343,-0.537 0.336,-0.544C0.329,-0.551 0.325,-0.559 0.325,-0.568C0.325,-0.593 0.321,-0.613 0.314,-0.628C0.306,-0.643 0.297,-0.654 0.287,-0.661C0.277,-0.668 0.267,-0.673 0.257,-0.675C0.246,-0.677 0.238,-0.678 0.233,-0.678C0.209,-0.678 0.188,-0.67 0.171,-0.655C0.15,-0.636 0.14,-0.607 0.14,-0.569L0.14,-0.163C0.14,-0.156 0.141,-0.148 0.142,-0.139C0.143,-0.13 0.146,-0.12 0.15,-0.109C0.153,-0.098 0.159,-0.089 0.167,-0.081C0.182,-0.065 0.204,-0.057 0.233,-0.057C0.264,-0.057 0.287,-0.065 0.302,-0.082C0.309,-0.09 0.315,-0.099 0.319,-0.109C0.323,-0.119 0.326,-0.128 0.328,-0.137C0.329,-0.146 0.33,-0.153 0.33,-0.159L0.33,-0.168L0.33,-0.169L0.33,-0.296L0.26,-0.296C0.25,-0.296 0.242,-0.3 0.235,-0.307C0.228,-0.314 0.224,-0.322 0.224,-0.332C0.224,-0.341 0.228,-0.349 0.235,-0.357C0.242,-0.364 0.25,-0.367 0.26,-0.367L0.4,-0.367L0.4,-0.171C0.401,-0.168 0.401,-0.163 0.401,-0.154C0.4,-0.145 0.399,-0.135 0.397,-0.124C0.39,-0.087 0.375,-0.057 0.354,-0.034C0.324,-0.002 0.284,0.014 0.233,0.014Z" style="fill:rgb(228,249,245);fill-rule:nonzero;"/>
            </g>
        </g>
        <g transform="matrix(0.745656,0,0,0.531319,-730.05,-1167.28)">
            <circle cx="2752.64" cy="925.411" r="47.452" style="fill:rgb(48,227,202);"/>
        </g>
        <g transform="matrix(0.602815,0,0,0.429537,1267.13,-770.55)">
            <path d="M446.552,109.257C444.929,106.896 406.13,51.408 347.904,49.077C347.414,49.057 346.924,49.055 346.434,49.043L380.741,23.312C382.933,21.668 384.054,18.96 383.665,16.248C383.276,13.536 381.439,11.251 378.874,10.29C341.957,-3.554 311.298,-3.428 287.747,10.668C273.082,19.445 262.989,32.656 256.028,46.627C253.384,41.319 250.438,36.424 247.205,31.987C239.257,21.079 229.527,12.831 218.288,7.471C195.605,-3.344 166.951,-2.396 133.123,10.29C130.558,11.252 128.721,13.536 128.332,16.248C127.943,18.96 129.064,21.668 131.256,23.312L165.563,49.042C165.073,49.054 164.584,49.056 164.094,49.076C105.869,51.407 67.069,106.895 65.446,109.256C63.868,111.551 63.692,114.532 64.988,116.997C66.285,119.462 68.841,121.005 71.626,121.005L133.082,121.005C114.828,134.982 101.368,155.218 93.555,180.783C85.266,207.903 86.215,231.304 86.26,232.286C86.383,235.015 87.981,237.461 90.43,238.671C91.482,239.191 92.618,239.447 93.752,239.447C95.257,239.447 96.756,238.994 98.036,238.104L232.177,144.788L224.609,431.031L287.388,431.031L279.82,144.788L413.961,238.104C415.241,238.994 416.739,239.447 418.245,239.447C419.378,239.447 420.516,239.191 421.567,238.671C424.016,237.461 425.614,235.015 425.737,232.286C425.781,231.303 426.73,207.903 418.442,180.783C410.63,155.221 397.176,134.984 378.928,121.005L440.372,121.005C443.157,121.005 445.713,119.462 447.01,116.997C448.306,114.533 448.131,111.553 446.552,109.257ZM295.452,23.539C312.151,13.545 333.915,12.335 360.283,19.908L315.565,53.447C295.748,59.649 276.382,72.343 257.637,91.428C261.097,70.567 270.416,38.522 295.452,23.539ZM151.718,19.906C175.671,13.027 195.85,13.389 211.833,21.01C228.115,28.773 240.308,44.098 248.117,66.534C246.477,71.814 245.197,76.948 244.195,81.745C228.633,67.97 212.674,58.51 196.411,53.427L151.718,19.906ZM87.409,106.007C101.334,90.635 129.371,65.48 164.694,64.066C192.807,62.941 220.623,77.038 247.582,106.007L87.409,106.007ZM101.783,217.227C102.533,208.639 104.233,197.037 108.03,184.751C117.831,153.038 136.44,131.604 163.339,121.007L240.1,121.007L101.783,217.227ZM239.614,431.033L247.409,134.195L256,128.219L264.591,134.195L272.384,431.033L239.614,431.033ZM348.659,121.006C375.559,131.603 394.167,153.036 403.968,184.75C407.765,197.036 409.465,208.639 410.214,217.227L271.897,121.006L436.026,121.006C440.168,121.006 443.526,117.648 443.526,113.506C443.526,109.364 440.168,106.006 436.026,106.006L264.417,106.006C291.348,77.067 319.144,62.964 347.221,64.062C373.442,65.084 395.542,79.432 409.465,91.288C415.536,96.458 420.636,101.627 424.598,106.007" style="fill:rgb(228,249,245);fill-rule:nonzero;"/>
        </g>
        <g transform="matrix(0.923312,0,0,0.657909,1231.3,-749.246)">
            <path d="M355.105,274.906C340.306,274.906 332.768,268.007 326.117,261.92C320.112,256.423 315.368,252.081 305.231,252.081C295.094,252.081 290.35,256.423 284.344,261.919C277.694,268.007 270.156,274.906 255.356,274.906C240.556,274.906 233.019,268.007 226.368,261.919C220.363,256.423 215.62,252.081 205.483,252.081C195.347,252.081 190.604,256.423 184.599,261.919C177.949,268.007 170.411,274.906 155.611,274.906C140.813,274.906 133.277,268.007 126.627,261.919C120.623,256.423 115.88,252.081 105.745,252.081C95.609,252.081 90.866,256.423 84.861,261.919C78.211,268.007 70.673,274.906 55.874,274.906C41.074,274.906 33.536,268.007 26.885,261.919C20.88,256.423 16.136,252.081 6,252.081C2.687,252.081 0,249.394 0,246.081C0,242.767 2.687,240.081 6,240.081C20.799,240.081 28.337,246.98 34.988,253.067C40.993,258.564 45.737,262.906 55.874,262.906C66.01,262.906 70.753,258.564 76.758,253.067C83.408,246.98 90.946,240.081 105.745,240.081C120.543,240.081 128.08,246.98 134.73,253.068C140.734,258.564 145.476,262.906 155.611,262.906C165.748,262.906 170.491,258.564 176.496,253.067C183.146,246.98 190.684,240.081 205.483,240.081C220.283,240.081 227.82,246.98 234.471,253.067C240.476,258.564 245.22,262.906 255.356,262.906C265.494,262.906 270.237,258.564 276.242,253.067C282.893,246.98 290.431,240.081 305.231,240.081C320.031,240.081 327.569,246.98 334.22,253.067C340.225,258.564 344.968,262.906 355.105,262.906C365.244,262.906 369.988,258.564 375.995,253.067C382.646,246.98 390.185,240.081 404.986,240.081C408.299,240.081 410.986,242.767 410.986,246.081C410.986,249.394 408.299,252.081 404.986,252.081C394.847,252.081 390.103,256.423 384.096,261.92C377.445,268.007 369.907,274.906 355.105,274.906Z" style="fill:rgb(228,249,245);fill-rule:nonzero;"/>
        </g>
        <g transform="matrix(11.2509,0,0,8.01687,-33096.7,-5706.16)">
            <g transform="matrix(12,0,0,12,3052.8,651.802)">
                <path d="M0.276,-0.114C0.281,-0.119 0.284,-0.124 0.287,-0.131C0.29,-0.138 0.292,-0.144 0.293,-0.151C0.294,-0.158 0.295,-0.164 0.296,-0.169C0.296,-0.173 0.296,-0.177 0.296,-0.179L0.296,-0.181L0.296,-0.573C0.296,-0.591 0.294,-0.605 0.289,-0.616C0.284,-0.627 0.278,-0.635 0.271,-0.641C0.264,-0.647 0.256,-0.651 0.248,-0.653C0.24,-0.654 0.233,-0.655 0.226,-0.655C0.221,-0.655 0.214,-0.654 0.207,-0.653C0.2,-0.651 0.193,-0.647 0.186,-0.642C0.179,-0.637 0.173,-0.628 0.169,-0.618C0.164,-0.607 0.161,-0.592 0.161,-0.574L0.161,-0.17C0.161,-0.164 0.162,-0.158 0.163,-0.151C0.164,-0.144 0.166,-0.138 0.169,-0.131C0.172,-0.124 0.175,-0.118 0.18,-0.113C0.182,-0.111 0.186,-0.108 0.193,-0.104C0.2,-0.099 0.211,-0.097 0.226,-0.097C0.243,-0.097 0.256,-0.099 0.263,-0.104C0.27,-0.109 0.274,-0.112 0.276,-0.114ZM0.416,-0.184C0.416,-0.18 0.416,-0.172 0.416,-0.162C0.415,-0.151 0.413,-0.138 0.41,-0.124C0.407,-0.109 0.401,-0.094 0.394,-0.078C0.387,-0.061 0.376,-0.046 0.363,-0.032C0.352,-0.019 0.335,-0.007 0.313,0.005C0.29,0.017 0.261,0.023 0.226,0.023C0.191,0.023 0.162,0.017 0.141,0.005C0.119,-0.007 0.102,-0.019 0.091,-0.032C0.078,-0.047 0.068,-0.062 0.061,-0.079C0.054,-0.096 0.049,-0.112 0.046,-0.127C0.043,-0.141 0.041,-0.155 0.041,-0.167L0.041,-0.191L0.041,-0.574C0.041,-0.614 0.048,-0.646 0.061,-0.671C0.074,-0.696 0.088,-0.714 0.102,-0.727C0.136,-0.759 0.177,-0.775 0.226,-0.775C0.249,-0.775 0.271,-0.771 0.294,-0.763C0.317,-0.755 0.337,-0.743 0.355,-0.726C0.373,-0.709 0.388,-0.688 0.399,-0.663C0.41,-0.638 0.416,-0.608 0.416,-0.573L0.416,-0.184Z" style="fill:rgb(228,249,245);fill-rule:nonzero;"/>
            </g>
            <g transform="matrix(12,0,0,12,3058.83,651.802)">
                <path d="M0.396,-0.767C0.413,-0.767 0.427,-0.761 0.439,-0.75C0.45,-0.738 0.456,-0.724 0.456,-0.707L0.456,-0.045C0.456,-0.028 0.45,-0.014 0.439,-0.003C0.427,0.009 0.413,0.015 0.396,0.015C0.379,0.015 0.365,0.009 0.354,-0.003C0.342,-0.014 0.336,-0.028 0.336,-0.045L0.336,-0.275L0.18,-0.275L0.18,-0.045C0.18,-0.028 0.174,-0.014 0.163,-0.003C0.151,0.009 0.137,0.015 0.12,0.015C0.103,0.015 0.089,0.009 0.078,-0.003C0.066,-0.014 0.06,-0.028 0.06,-0.045L0.06,-0.707C0.06,-0.724 0.066,-0.738 0.078,-0.75C0.089,-0.761 0.103,-0.767 0.12,-0.767C0.137,-0.767 0.151,-0.761 0.163,-0.75C0.174,-0.738 0.18,-0.724 0.18,-0.707L0.18,-0.395L0.336,-0.395L0.336,-0.707C0.336,-0.724 0.342,-0.738 0.354,-0.75C0.365,-0.761 0.379,-0.767 0.396,-0.767Z" style="fill:rgb(228,249,245);fill-rule:nonzero;"/>
            </g>
            <g transform="matrix(12,0,0,12,3065.61,651.802)">
                <path d="M0.209,-0.393L0.179,-0.246L0.238,-0.246L0.209,-0.393ZM0.4,-0.048C0.403,-0.031 0.401,-0.016 0.392,-0.003C0.383,0.011 0.37,0.02 0.353,0.023C0.35,0.024 0.347,0.024 0.342,0.024C0.328,0.024 0.316,0.02 0.305,0.011C0.294,0.002 0.286,-0.01 0.283,-0.024L0.262,-0.126L0.155,-0.126L0.134,-0.024C0.131,-0.01 0.125,0.002 0.114,0.011C0.102,0.02 0.09,0.024 0.076,0.024C0.071,0.024 0.067,0.024 0.064,0.023C0.047,0.02 0.035,0.011 0.026,-0.003C0.017,-0.016 0.014,-0.031 0.017,-0.048L0.15,-0.709L0.15,-0.71L0.15,-0.712C0.15,-0.713 0.15,-0.713 0.151,-0.713C0.151,-0.713 0.151,-0.713 0.151,-0.714L0.151,-0.715L0.151,-0.716C0.152,-0.717 0.152,-0.717 0.152,-0.718C0.152,-0.719 0.152,-0.719 0.153,-0.719C0.153,-0.719 0.153,-0.719 0.153,-0.72L0.153,-0.721C0.155,-0.726 0.158,-0.731 0.162,-0.735L0.162,-0.736C0.163,-0.736 0.163,-0.736 0.163,-0.737C0.163,-0.737 0.163,-0.737 0.164,-0.737L0.164,-0.738L0.165,-0.739L0.166,-0.74L0.167,-0.741L0.168,-0.742L0.169,-0.743C0.169,-0.743 0.17,-0.743 0.171,-0.744C0.175,-0.748 0.18,-0.751 0.185,-0.753L0.186,-0.753C0.187,-0.754 0.187,-0.754 0.188,-0.754C0.191,-0.755 0.194,-0.756 0.197,-0.757C0.2,-0.757 0.203,-0.757 0.206,-0.758L0.211,-0.758C0.214,-0.757 0.217,-0.757 0.22,-0.757C0.223,-0.756 0.226,-0.755 0.229,-0.754L0.232,-0.753C0.237,-0.751 0.242,-0.748 0.246,-0.744L0.255,-0.736L0.255,-0.735C0.259,-0.731 0.262,-0.726 0.264,-0.721L0.265,-0.718C0.266,-0.714 0.267,-0.711 0.267,-0.709L0.4,-0.048Z" style="fill:rgb(228,249,245);fill-rule:nonzero;"/>
            </g>
            <g transform="matrix(12,0,0,12,3071.29,651.802)">
                <path d="M0.397,-0.767C0.414,-0.767 0.428,-0.761 0.44,-0.75C0.451,-0.738 0.457,-0.724 0.457,-0.707L0.457,-0.036C0.457,-0.036 0.457,-0.036 0.456,-0.035L0.456,-0.031C0.455,-0.03 0.455,-0.03 0.455,-0.029L0.455,-0.028C0.455,-0.027 0.455,-0.027 0.455,-0.027C0.454,-0.027 0.454,-0.027 0.454,-0.026C0.454,-0.025 0.454,-0.025 0.454,-0.025C0.453,-0.024 0.453,-0.024 0.453,-0.023C0.453,-0.022 0.453,-0.022 0.453,-0.022C0.452,-0.021 0.452,-0.021 0.452,-0.02C0.452,-0.019 0.452,-0.019 0.452,-0.019C0.451,-0.019 0.451,-0.019 0.451,-0.018L0.451,-0.017C0.45,-0.017 0.45,-0.017 0.45,-0.016L0.449,-0.015C0.449,-0.014 0.449,-0.014 0.448,-0.013L0.447,-0.012L0.447,-0.011C0.446,-0.011 0.446,-0.011 0.446,-0.01C0.446,-0.009 0.446,-0.009 0.445,-0.009C0.445,-0.008 0.445,-0.008 0.445,-0.008C0.444,-0.008 0.444,-0.008 0.444,-0.007L0.443,-0.007C0.443,-0.006 0.443,-0.006 0.442,-0.005L0.44,-0.003L0.438,-0.001L0.436,0.001L0.435,0.001C0.435,0.001 0.434,0.002 0.433,0.003C0.432,0.004 0.432,0.004 0.431,0.004C0.431,0.005 0.431,0.005 0.43,0.005L0.429,0.006C0.428,0.006 0.428,0.006 0.428,0.007C0.428,0.007 0.428,0.007 0.427,0.007L0.426,0.007C0.426,0.007 0.425,0.008 0.424,0.009C0.421,0.01 0.419,0.011 0.417,0.012C0.415,0.013 0.412,0.013 0.409,0.014C0.406,0.015 0.402,0.015 0.397,0.015C0.393,0.015 0.39,0.015 0.388,0.014L0.386,0.014L0.385,0.014C0.384,0.014 0.384,0.014 0.384,0.013L0.38,0.013L0.38,0.012L0.378,0.012C0.375,0.011 0.374,0.01 0.373,0.01C0.372,0.01 0.372,0.01 0.372,0.009L0.371,0.009C0.37,0.009 0.37,0.009 0.37,0.008C0.369,0.008 0.369,0.008 0.368,0.007C0.367,0.007 0.367,0.007 0.367,0.006L0.366,0.006C0.365,0.006 0.365,0.006 0.365,0.006C0.365,0.005 0.365,0.005 0.364,0.005C0.357,0 0.351,-0.007 0.346,-0.014L0.346,-0.015C0.345,-0.015 0.345,-0.015 0.345,-0.016C0.345,-0.016 0.345,-0.016 0.344,-0.017L0.344,-0.018C0.343,-0.019 0.343,-0.019 0.343,-0.02C0.343,-0.021 0.343,-0.021 0.342,-0.022L0.171,-0.417L0.171,-0.045C0.171,-0.028 0.165,-0.014 0.154,-0.003C0.142,0.009 0.128,0.015 0.111,0.015C0.094,0.015 0.08,0.009 0.069,-0.003C0.057,-0.014 0.051,-0.028 0.051,-0.045L0.051,-0.706L0.051,-0.71L0.051,-0.713L0.051,-0.714L0.051,-0.716L0.052,-0.717L0.052,-0.718L0.052,-0.72L0.052,-0.721C0.053,-0.722 0.053,-0.722 0.053,-0.723L0.053,-0.724C0.053,-0.725 0.053,-0.725 0.054,-0.725C0.054,-0.725 0.054,-0.725 0.054,-0.726L0.057,-0.733C0.057,-0.733 0.057,-0.733 0.057,-0.734L0.057,-0.735C0.057,-0.735 0.058,-0.736 0.059,-0.737C0.059,-0.738 0.059,-0.738 0.06,-0.738C0.06,-0.738 0.06,-0.738 0.06,-0.739C0.06,-0.739 0.06,-0.739 0.061,-0.74L0.061,-0.741C0.062,-0.742 0.062,-0.742 0.062,-0.743L0.063,-0.743C0.063,-0.744 0.063,-0.744 0.064,-0.744C0.064,-0.744 0.064,-0.744 0.064,-0.745L0.065,-0.745C0.065,-0.746 0.065,-0.746 0.066,-0.747L0.068,-0.749L0.068,-0.75C0.069,-0.75 0.069,-0.75 0.07,-0.751L0.07,-0.752C0.071,-0.752 0.071,-0.752 0.072,-0.753L0.073,-0.753C0.073,-0.753 0.074,-0.754 0.075,-0.755L0.077,-0.757L0.078,-0.757C0.078,-0.758 0.078,-0.758 0.079,-0.758C0.08,-0.758 0.08,-0.758 0.08,-0.759C0.08,-0.759 0.08,-0.759 0.081,-0.759L0.082,-0.759C0.082,-0.759 0.083,-0.76 0.084,-0.761C0.089,-0.764 0.093,-0.765 0.098,-0.766L0.099,-0.766C0.102,-0.767 0.107,-0.767 0.114,-0.767L0.118,-0.767L0.119,-0.766L0.124,-0.766C0.124,-0.765 0.124,-0.765 0.125,-0.765L0.128,-0.765L0.135,-0.762L0.138,-0.761L0.138,-0.76L0.143,-0.758L0.146,-0.755L0.149,-0.754L0.151,-0.752L0.153,-0.749L0.159,-0.743L0.162,-0.739L0.164,-0.734L0.165,-0.734L0.166,-0.73L0.337,-0.335L0.337,-0.707C0.337,-0.724 0.343,-0.738 0.355,-0.75C0.366,-0.761 0.38,-0.767 0.397,-0.767Z" style="fill:rgb(228,249,245);fill-rule:nonzero;"/>
            </g>
            <g transform="matrix(12,0,0,12,3077.97,651.802)">
                <path d="M0.209,-0.393L0.179,-0.246L0.238,-0.246L0.209,-0.393ZM0.4,-0.048C0.403,-0.031 0.401,-0.016 0.392,-0.003C0.383,0.011 0.37,0.02 0.353,0.023C0.35,0.024 0.347,0.024 0.342,0.024C0.328,0.024 0.316,0.02 0.305,0.011C0.294,0.002 0.286,-0.01 0.283,-0.024L0.262,-0.126L0.155,-0.126L0.134,-0.024C0.131,-0.01 0.125,0.002 0.114,0.011C0.102,0.02 0.09,0.024 0.076,0.024C0.071,0.024 0.067,0.024 0.064,0.023C0.047,0.02 0.035,0.011 0.026,-0.003C0.017,-0.016 0.014,-0.031 0.017,-0.048L0.15,-0.709L0.15,-0.71L0.15,-0.712C0.15,-0.713 0.15,-0.713 0.151,-0.713C0.151,-0.713 0.151,-0.713 0.151,-0.714L0.151,-0.715L0.151,-0.716C0.152,-0.717 0.152,-0.717 0.152,-0.718C0.152,-0.719 0.152,-0.719 0.153,-0.719C0.153,-0.719 0.153,-0.719 0.153,-0.72L0.153,-0.721C0.155,-0.726 0.158,-0.731 0.162,-0.735L0.162,-0.736C0.163,-0.736 0.163,-0.736 0.163,-0.737C0.163,-0.737 0.163,-0.737 0.164,-0.737L0.164,-0.738L0.165,-0.739L0.166,-0.74L0.167,-0.741L0.168,-0.742L0.169,-0.743C0.169,-0.743 0.17,-0.743 0.171,-0.744C0.175,-0.748 0.18,-0.751 0.185,-0.753L0.186,-0.753C0.187,-0.754 0.187,-0.754 0.188,-0.754C0.191,-0.755 0.194,-0.756 0.197,-0.757C0.2,-0.757 0.203,-0.757 0.206,-0.758L0.211,-0.758C0.214,-0.757 0.217,-0.757 0.22,-0.757C0.223,-0.756 0.226,-0.755 0.229,-0.754L0.232,-0.753C0.237,-0.751 0.242,-0.748 0.246,-0.744L0.255,-0.736L0.255,-0.735C0.259,-0.731 0.262,-0.726 0.264,-0.721L0.265,-0.718C0.266,-0.714 0.267,-0.711 0.267,-0.709L0.4,-0.048Z" style="fill:rgb(228,249,245);fill-rule:nonzero;"/>
            </g>
        </g>
    </g>
</svg>
