<svg xmlns="http://www.w3.org/2000/svg" xmlns:xlink="http://www.w3.org/1999/xlink" viewBox="0 0 809 1080"><defs><style>.cls-1{fill:none;}.cls-2{clip-path:url(#clip-path);}.cls-3{fill:#fff;}.cls-4{fill:#ffbfa4;}.cls-5{fill:#2f3787;}.cls-6{fill:#242449;}.cls-7{fill:#babcbe;}.cls-8{fill:#f17187;}.cls-9{fill:#5966d6;}.cls-10{fill:#f6d5d5;}.cls-11{fill:#93b79b;}.cls-12{fill:#aac0ba;}.cls-13{fill:#7eacf1;}.cls-14{fill:#3b308a;}.cls-15{fill:#dedae8;}.cls-16{fill:#424dbf;}.cls-17{opacity:0.13;}.cls-18{clip-path:url(#clip-path-2);}.cls-19{opacity:0.64;}.cls-20{clip-path:url(#clip-path-3);}.cls-21{opacity:0.11;}.cls-22{clip-path:url(#clip-path-4);}.cls-23{fill:#e2d8c7;}.cls-24{fill:#c4bbac;}.cls-25{fill:#cec4b5;}.cls-26{fill:#f3f3f3;}.cls-27{opacity:0.05;}.cls-28{clip-path:url(#clip-path-5);}.cls-29{fill:#232020;}.cls-30{clip-path:url(#clip-path-6);}.cls-31{opacity:0.08;}.cls-32{clip-path:url(#clip-path-7);}.cls-33{fill:#ce7361;}.cls-34{opacity:0.1;}.cls-35{clip-path:url(#clip-path-8);}.cls-36{opacity:0.2;}.cls-37{clip-path:url(#clip-path-9);}.cls-38{clip-path:url(#clip-path-10);}</style><clipPath id="clip-path"><rect class="cls-1" x="6.76" width="809" height="1080"/></clipPath><clipPath id="clip-path-2"><rect class="cls-1" x="101.88" y="662.31" width="78.5" height="8.56"/></clipPath><clipPath id="clip-path-3"><rect class="cls-1" x="131.27" y="617.9" width="10.43" height="10.63"/></clipPath><clipPath id="clip-path-4"><rect class="cls-1" x="102.32" y="777.82" width="95.25" height="8.46"/></clipPath><clipPath id="clip-path-5"><rect class="cls-1" x="456.04" y="695.87" width="137.74" height="206.84"/></clipPath><clipPath id="clip-path-6"><rect class="cls-1" x="456.04" y="744.33" width="85.7" height="158.38"/></clipPath><clipPath id="clip-path-7"><rect class="cls-1" x="640.28" y="710.79" width="94.42" height="134.67"/></clipPath><clipPath id="clip-path-8"><rect class="cls-1" x="267.22" y="878.44" width="70.63" height="79.89"/></clipPath><clipPath id="clip-path-9"><rect class="cls-1" x="256.2" y="854.7" width="159.72" height="10.57"/></clipPath><clipPath id="clip-path-10"><rect class="cls-1" x="328.82" y="861.44" width="5.44" height="97.94"/></clipPath></defs><title>Book Cover</title><g id="Layer_2" data-name="Layer 2"><g id="Layer_1-2" data-name="Layer 1"><g class="cls-2"><rect class="cls-3" width="809" height="1080"/><path class="cls-4" d="M106.79,755.91c1.64-1,4.16-1.25,6.16-2.33,1-.54,1-2.86,3.11-1.79.78.39,2.12,1.54,3.62,2.27a15.67,15.67,0,0,0,8.24.92A285.24,285.24,0,0,1,161,752.21a3.55,3.55,0,0,0,1.82-.33c1-.58,1.23-1.65,1.56-2.7a79.45,79.45,0,0,1,5.7-14c2.19-4,4.69-7.76,8.46-10.4s8.53-3.69,12.72-1.93c3.14,1.31,5.62,3.8,6,7.23.93,8.5-7.29,14.07-12.41,19.52-4.84,5.16-9,9.53-14,14.21a5.69,5.69,0,0,1-2,1.4,6,6,0,0,1-2.59.14c-11-1.11-21.73-2.48-32.73-1.19-3,.35-5.67-.52-8.55.19-1.84.45-2.92,2.13-4.64,2.83a14.71,14.71,0,0,1-5.57,1.36c-4.07-.09-8.38-3.89-9.4-7.89-.66-2.61.08-3.89,1.43-4.7"/><path class="cls-5" d="M185,746.51c-6-2.9-12.39-4.91-18.2-8.29,2.66-5.08,10.9-26,12.22-28.45,5-9.44,6.22-13.59,12.43-18.26,13.25-10,27.19-1.36,25.21,14.28-2.15,17-12.56,30.79-23.6,43.09a2,2,0,0,1-.94.58,2.29,2.29,0,0,1-1.39-.31c-1.86-.93-3.83-1.73-5.73-2.64"/><path class="cls-4" d="M181.08,982.48a49.12,49.12,0,0,1-6.42-.61c-1.11-21.25.9-43.52,1.77-64.87l16.38.88a190.32,190.32,0,0,0-8.1,35.1c-.25,1.89-3.32,29.49-3.63,29.5"/><path class="cls-6" d="M174,977.75a3.3,3.3,0,0,0-3,1.18c-.52.48-.88,1.15-1.51,1.49a4.86,4.86,0,0,1-2,.48c-3.94.4-13,.24-8.18,6.82,4.39,6,16.05,3.6,22.78,2a2.41,2.41,0,0,0,1.24-.52,3.21,3.21,0,0,0,.68-1.34c.77-2.81,1.82-6.32-1.64-7.5-1.48-.51-2.84.47-4.4-.07-1.28-.44-2.59-2.28-3.94-2.52"/><path class="cls-6" d="M164.19,929.82l33.4-.65q13.5-64.29,23.78-129.22c.53-3.35,1-6.84.08-10.1-1.83-6.16-8.42-9.67-14.74-10.85-9.81-1.83-27.84.72-32.87,10.92-5.32,10.78-4.42,30-5.71,42a724.94,724.94,0,0,0-3.94,98"/><path class="cls-4" d="M244.74,982.48a49.12,49.12,0,0,0,6.42-.61c1.11-21.25-.9-43.52-1.77-64.87l-16.37.88a191.13,191.13,0,0,1,8.1,35.1c.25,1.89,3.31,29.49,3.62,29.5"/><path class="cls-6" d="M251.82,977.75a3.29,3.29,0,0,1,3,1.18c.53.48.88,1.15,1.51,1.49a4.9,4.9,0,0,0,2,.48c3.94.4,13,.24,8.18,6.82-4.39,6-16,3.6-22.78,2a2.35,2.35,0,0,1-1.23-.52,3,3,0,0,1-.68-1.34c-.77-2.81-1.82-6.32,1.64-7.5,1.47-.51,2.83.47,4.39-.07,1.28-.44,2.6-2.28,3.94-2.52"/><path class="cls-6" d="M261.63,929.82l-33.4-.65Q214.73,864.88,204.46,800c-.54-3.35-1.05-6.84-.09-10.1,1.83-6.16,8.43-9.67,14.74-10.85,9.81-1.83,27.84.72,32.87,10.92,5.32,10.78,4.43,30,5.72,42a724.94,724.94,0,0,1,3.93,98"/><path class="cls-5" d="M233.09,694.76a79.61,79.61,0,0,1,19.63,30.71c7.13,20,7.27,41.38,7.33,62.32q0,10.46.07,20.91c0,6.86-.58,8.33-8,7.43-13.81-1.68-28.16-4.52-40.67-10.66-6-2.92-11.52-6.61-17.76-8.91-9.08-3.34-18.39-1.83-27.38-4a212.71,212.71,0,0,0,8.69-34c2.07-12.51,3.94-26.15,7-38.49,1.81-7.41,5.18-14.33,8.61-21.13,2.31-4.58,4.75-9.26,8.66-12.57,11.79-10,25-.09,33.9,8.37"/><path class="cls-4" d="M200.89,665.4c1.68,3.69,4.44,6.76,6.68,10.13a22.64,22.64,0,0,1,3.56,10c.42,2.75,1.4,4.89,4.71,5.36,6.23.89,4.45-4.26,5.87-8,1.62-4.29,5.07-7.67,7.48-11.5,7-11,5-32.9-9.51-37.56-15.85-5.1-23.91,20.36-18.79,31.54"/><path class="cls-6" d="M226.15,654.71c1.8.07,3.78.21,5.11,1.42s1.19,3.84-.57,4.13c-1.6.26-3.66-1.41-4.64-.19-.57.71-.07,1.75.36,2.58a15.21,15.21,0,0,1,1.39,10.29c.65.61,1.68,0,2.25-.66a33.12,33.12,0,0,0,6.58-10.79,6.52,6.52,0,0,0,2.41,2.34,7.63,7.63,0,0,1,.15-4.65c1.35-5.59,2.28-12.14-1.63-16.71A14.53,14.53,0,0,0,229.1,638a42.27,42.27,0,0,0-9.67-.3c-1.38.06-3.07.36-3.41,1.63a15.32,15.32,0,0,1,7.66,6.44c.47.87,2.29,8.9,2.47,8.91"/><path class="cls-6" d="M219.77,641.27l.32.24c1.37,1,2.65,2.31,4.31,2.78,2.39.66,5-.49,7.31.32,2.63.91,4.35,4.06,6.27,5.92a28.09,28.09,0,0,0,17.83,7.74,11.75,11.75,0,0,0,3.35,0c1.32-.36,1.28-1-.13-1.41-4.43-1.42-5.81-7.64-5.48-11.76.26-3.25,1.39-6.65.15-9.66-.95-2.31-3-3.5-4.95-4.82-2.17-1.45-4.52-1.06-7-1.76s-4.66-2.75-7.28-3.27-5.53.68-8.3,1.22a17.13,17.13,0,0,1-7-.08c-2-.45-4-1.28-6.11-1.26a10,10,0,0,0-7.71,4.45,20.4,20.4,0,0,0-3.29,14.25c-.14-.72,2.29-3.34,2.79-3.9a6.58,6.58,0,0,1,3.94-2.5c3.65-.43,8,1.38,10.92,3.51"/><path class="cls-7" d="M98.44,784.54s3.4,16.19,1.13,23.51l6.19.05-2-26Z"/><path class="cls-7" d="M105.47,805.27c-1.74.27-3.48.47-5.23.59-.28,0-.23.48.05.46,1.75-.12,3.49-.32,5.23-.59.28,0,.23-.51,0-.46"/><path class="cls-7" d="M105.19,802.82l-4.67.64c-.28,0-.23.5,0,.46l4.67-.64c.28,0,.23-.5,0-.46"/><path class="cls-7" d="M105,800.71a11.77,11.77,0,0,1-4.46.52c-.29,0-.23.47.05.46a20.9,20.9,0,0,0,4.46-.52c.27-.06.22-.52,0-.46"/><path class="cls-7" d="M105.06,797.74a34.88,34.88,0,0,1-4.55.78c-.28,0-.23.49.06.46a35,35,0,0,0,4.54-.78c.28-.07.23-.53,0-.46"/><path class="cls-7" d="M104.65,795.1c-1.48.22-3,.4-4.46.54-.28,0-.23.48,0,.46,1.49-.14,3-.32,4.46-.54.28,0,.23-.5,0-.46"/><path class="cls-7" d="M104.24,792.47c-1.44.27-2.88.49-4.34.65a.23.23,0,0,0,0,.46c1.46-.16,2.9-.38,4.34-.65.27,0,.22-.51-.05-.46"/><path class="cls-7" d="M104,789.47c-1.54.33-3.09.6-4.65.8a.14.14,0,0,0-.11.05.07.07,0,0,0,0,0c0,.12,0,.23.08.35h.07c1.56-.2,3.11-.47,4.65-.8.27,0,.22-.52,0-.46"/><path class="cls-7" d="M103.89,786.48l-4.55.66c-.28,0-.23.51,0,.46l4.55-.66c.28,0,.23-.5,0-.46"/><path class="cls-8" d="M207.65,832.89,97,842.17a.27.27,0,0,1-.28-.24l-1.57-18.49a.27.27,0,0,1,.24-.28L206,813.88a.27.27,0,0,1,.28.24l1.57,18.49a.26.26,0,0,1-.23.28"/><polygon class="cls-6" points="116.46 840.54 104.82 841.51 103.21 822.5 114.84 821.52 116.46 840.54"/><polygon class="cls-6" points="121.73 840.1 119.14 840.31 117.53 821.3 120.11 821.08 121.73 840.1"/><path class="cls-6" d="M130.75,829.76a3.31,3.31,0,1,1-3.58-3.09,3.34,3.34,0,0,1,3.58,3.09"/><path class="cls-9" d="M207,814,96.28,823.29a.25.25,0,0,1-.28-.24l-1.26-14.81A.26.26,0,0,1,95,808l110.69-9.28a.27.27,0,0,1,.28.24l1.26,14.81a.26.26,0,0,1-.24.28"/><polygon class="cls-10" points="109.23 811.14 109.79 817.78 113.04 814.53 109.23 811.14"/><polygon class="cls-10" points="113.73 811.41 114.19 816.77 116.81 814.14 113.73 811.41"/><polygon class="cls-10" points="102.53 822.77 102.03 822.81 100.72 807.48 101.23 807.43 102.53 822.77"/><polygon class="cls-10" points="104.89 822.57 104.39 822.61 103.09 807.28 103.59 807.24 104.89 822.57"/><path class="cls-10" d="M124,636.81l-7.89,2.92.11-1.9a55.8,55.8,0,0,0-2.33-18.05l.33-.35,7.23-6.24Z"/><polygon class="cls-11" points="169.03 633.76 123.31 635.78 115.91 639.65 165.43 637.57 169.03 633.76"/><path class="cls-12" d="M115.78,639.14a18.54,18.54,0,0,0,3.85-1.94c1.18-.65,2.36-1.3,3.53-2,.19-.1.33.52.15.62L119.49,638a17.64,17.64,0,0,1-3.64,1.81c-.2.05-.27-.6-.07-.65"/><path class="cls-12" d="M121.45,614.06a45,45,0,0,0-7.67,6.36c-.25.26-.58-.58-.33-.84a46.36,46.36,0,0,1,7.78-6.46c.27-.18.49.76.22.94"/><path class="cls-13" d="M167.13,611.42l-46.07,1.79.72,5.07c.57,4.1,1,8.22,1.24,12.32l.29,5.18,45.72-2,0-.31a81.2,81.2,0,0,0-1.92-22"/><path class="cls-9" d="M128,613.45c-.13-.64-1.13-.53-1,.12a77.27,77.27,0,0,1,1.49,20.63c0,.66,1,.82,1,.16A78.06,78.06,0,0,0,128,613.45"/><path class="cls-9" d="M161.64,612.4c-.14-.65-1.14-.52-1,.13a76.72,76.72,0,0,1,1.66,20.61c0,.66,1,.81,1,.14a77.49,77.49,0,0,0-1.66-20.88"/><path class="cls-4" d="M102,667.21l-17.68,4.51.38-2.56c1.13-7.71-.56-16.89-3.82-24.16l.75-.48,16.48-8.94Z"/><polygon class="cls-6" points="202.06 659.79 100.59 665.86 83.91 671.62 193.79 665.19 202.06 659.79"/><path class="cls-5" d="M83.66,671a59.45,59.45,0,0,0,8.66-2.89l8-2.9c.43-.16.7.66.28.82L92,669.11a55.79,55.79,0,0,1-8.2,2.7c-.45.09-.54-.78-.1-.86"/><path class="cls-5" d="M98.07,636.74a118,118,0,0,0-17.45,9.13c-.58.37-1.25-.73-.66-1.1a119.58,119.58,0,0,1,17.7-9.28c.62-.26,1,1,.41,1.25"/><path class="cls-14" d="M199.5,629.84,97.29,635.63l1.2,6.78a126.41,126.41,0,0,1,1.85,16.5l.25,7,101.47-6.07.06-.41A66.25,66.25,0,0,0,199.5,629.84Z"/><path class="cls-15" d="M197.9,799.17,104.23,807l-1.91-22.49L196,776.67l.11.31a38.93,38.93,0,0,1,1.8,22.19"/><rect class="cls-5" x="112.83" y="783.13" width="13.13" height="22.57" transform="translate(-65.94 12.75) rotate(-4.79)"/><path class="cls-4" d="M100.63,760.7,83,759.59l.8,1.94c2.41,5.8,2.41,13.1.59,19.09l.79.28,17.11,4.8Z"/><polygon class="cls-6" points="202.12 752.5 99.5 761.94 82.65 759.73 192.62 749.31 202.12 752.5"/><path class="cls-5" d="M82.53,760.28a69.28,69.28,0,0,1,8.71,1.07l8.11,1.17c.42.07.55-.61.12-.67l-8.76-1.27a65.44,65.44,0,0,0-8.24-1c-.43,0-.37.68.06.68"/><path class="cls-5" d="M102.08,784.82A134.73,134.73,0,0,1,84,780c-.61-.21-1,.72-.43.93a136.46,136.46,0,0,0,18.3,4.91.51.51,0,0,0,.19-1"/><path class="cls-16" d="M204.22,777.16l-102.7,8.61V780.4a81.09,81.09,0,0,0-1.06-13l-1-5.44,102.63-9.44.13.33a42.74,42.74,0,0,1,2,24.33"/><path class="cls-13" d="M192.07,751.77l-97.33,8.15a.25.25,0,0,1-.28-.24L92.53,736.9a.27.27,0,0,1,.23-.29l97.33-8.15a.26.26,0,0,1,.28.24l1.93,22.78a.27.27,0,0,1-.23.29"/><path class="cls-9" d="M202.14,710.82,81.82,720.9a.26.26,0,0,1-.28-.24l-1.4-16.49a.25.25,0,0,1,.24-.28L200.7,693.8a.27.27,0,0,1,.28.24l1.4,16.49a.27.27,0,0,1-.24.29"/><path class="cls-8" d="M181.42,695.74l-76.7,6.42-2.85-33.61,76.69-6.43L179,664a101.77,101.77,0,0,1,2.54,29.87Z"/><polygon class="cls-10" points="128.42 699.95 113.2 701.23 110.39 668.06 125.61 666.79 128.42 699.95"/><rect class="cls-8" x="115.05" y="667.37" width="8.58" height="33.28" transform="translate(-56.72 12.36) rotate(-4.79)"/><g class="cls-17"><g class="cls-18"><polygon points="101.88 668.74 178.58 662.31 180.38 670.88 102.04 670.56 101.88 668.74"/></g></g><g class="cls-19"><g class="cls-20"><path class="cls-9" d="M141.68,622.78a5.21,5.21,0,1,1-5.64-4.87,5.25,5.25,0,0,1,5.64,4.87"/></g></g><path class="cls-15" d="M92.89,711.23A17.32,17.32,0,0,0,89,708.15c-.57-.34-1,.6-.43.93a16.54,16.54,0,0,1,3.3,2.59A32,32,0,0,1,89,715.15c-.46.47.32,1.13.77.66A30.05,30.05,0,0,0,93,712a.54.54,0,0,0-.06-.72"/><path class="cls-15" d="M98.73,710.52a20,20,0,0,0-3.11-2.61.51.51,0,0,0-.65.79,24.18,24.18,0,0,1,2.72,2.17,15.06,15.06,0,0,1-1.32,1.42l-1.49,1.65c-.44.49.33,1.15.77.67l1.79-2A6.69,6.69,0,0,0,98.77,711a.53.53,0,0,0,0-.52"/><path class="cls-15" d="M101.54,706.3a.51.51,0,0,0-.65.78c.3.26.92,1.18.25,1.37s-.27,1.14.36,1a1.36,1.36,0,0,0,.93-1.43,2.4,2.4,0,0,0-.89-1.68"/><path class="cls-15" d="M107.37,708.44a.5.5,0,0,0-.57-.16,2,2,0,0,0-2.16,3.29,1.92,1.92,0,0,0,2.67-.08,2.29,2.29,0,0,0,.06-3m-.73,2.28a.92.92,0,0,1-1.35.06,1,1,0,0,1,1.13-1.56.47.47,0,0,0,.28,0,1.2,1.2,0,0,1-.06,1.46"/><rect class="cls-15" x="176.98" y="729.5" width="1.16" height="23.48" transform="translate(-61.4 17.46) rotate(-4.8)"/><rect class="cls-15" x="181.68" y="729.11" width="1.16" height="23.48" transform="translate(-61.4 17.86) rotate(-4.8)"/><g class="cls-21"><g class="cls-22"><path d="M102.32,785.7l94.1-7.88s.8,2.24,1.15,3.76l-95.1,4.7Z"/></g></g><path class="cls-6" d="M197.33,728.05,77,738.14a.26.26,0,0,1-.28-.24l-1.4-16.49a.26.26,0,0,1,.23-.29L195.89,711a.25.25,0,0,1,.27.24l1.4,16.49a.25.25,0,0,1-.23.28"/><rect class="cls-15" x="89.98" y="724.91" width="1.83" height="6.99" transform="translate(-60.41 10.11) rotate(-4.78)"/><rect class="cls-15" x="95.7" y="724.43" width="1.83" height="6.99" transform="translate(-60.36 10.59) rotate(-4.78)"/><path class="cls-10" d="M202.57,710.47,81.91,720.75a.56.56,0,0,1-.6-.64l120.82-11.26Z"/><path class="cls-15" d="M202.07,709.77,81.41,720.05a.56.56,0,0,1-.6-.64l120.82-11.25Z"/><path class="cls-7" d="M96.62,671.73s5.4,21,1.88,30.18l6.22.25-2.84-33.42Z"/><path class="cls-4" d="M189.05,780.83a3.19,3.19,0,0,1,.28-.59c1.17-1.59,2.72-1.72,4.28-2.92.69-.54.49-2.79,2.22-2.18.64.22,2.13,1,3.48,1.47,2,.71,4.91.42,7.2-.25a66.12,66.12,0,0,0,9.18-3.23c3-1.4,6-3,8.84-4.61,2.39-1.39,6.19-3,8-5.1,3.06-3.58-.49-12.3-.89-16.76-.42-4.66,0-18.37,6.27-18.76,10.3-.64,10.46,9.15,10.92,17a101.94,101.94,0,0,1-.18,14.83c-.62,6.88-5.07,10.81-11,14.07-6.24,3.44-12.62,6.82-19.48,8.88a77.61,77.61,0,0,1-10,1.84c-3.36.54-2.93,2-5.75,3.24a27.87,27.87,0,0,1-4.73,2.06c-3,.69-5.42-1.4-7.71-3a3.28,3.28,0,0,1-1.25-1.26,4.78,4.78,0,0,1-.14-3,8.94,8.94,0,0,1,.42-1.77"/><path class="cls-5" d="M248.64,747.58,231.18,751c.37-.07-6.74-26.1-7.11-27.66-1.41-6-2.83-12.17-1.62-18.18,2.58-12.84,8.77-16,16.57-2.51,7.36,12.74,18.89,28,16.61,42.47a1.79,1.79,0,0,1-.31.89,1.82,1.82,0,0,1-1.17.53Z"/><path class="cls-13" d="M393.34,703.69A77,77,0,0,0,421,713.91q2.63-12,5.54-23.95A42.31,42.31,0,0,1,430,679.9c.89-1.66,4.25-4.7,3.21-6.86-1.83-3.79-9.79.4-12.07,1.66a68.43,68.43,0,0,0-16,12.74c-1.13,1.18-12.78,15.63-11.75,16.25"/><path class="cls-4" d="M474.78,892.1l.54,32.78c-.22,9.09.6,18.15,1.15,27.22.52,8.42-1.18,17.09,2.81,24.89,1.26,2.45,3.92,4.16,6,1.33,1.56-2.18.84-6,1.23-8.48,2.9-19,8.3-37.52,11-56.56,2.82-19.94-4.89-19.41-22.67-21.18"/><polygon class="cls-6" points="476.64 971.39 474.54 976.86 484.9 985.99 494.4 986.38 497.47 981.37 484.7 970.26 476.64 971.39"/><path class="cls-4" d="M451.56,892.42l-6,32.23c-2.08,14.42-6.79,28.46-8.86,42.88-.48,3.31-.24,6.94-1.62,10.07s-4,3.18-6.35,1.1c-3.14-2.78-1.69-7.75-1.63-11.55.38-25.3-1.61-50.24-2.09-75.59a1.13,1.13,0,0,1,.27-.92,1.07,1.07,0,0,1,.77-.15c2.46.16,25.35,2.63,25.48,1.93"/><polygon class="cls-6" points="427.05 972.74 423.77 977.59 431.81 988.82 440.97 991.35 445.1 987.16 435.16 973.45 427.05 972.74"/><polygon class="cls-6" points="508.56 912.96 504.09 866.1 501.93 835.66 494.68 810.79 455.53 804.72 407.13 813.01 404.81 822.41 414.12 909.46 460.81 912.96 460.17 858.78 467.37 892.36 467.07 912.96 508.56 912.96"/><path class="cls-3" d="M417.41,719.24c-.07,1.59-.11,3.17-.14,4.75-.56,32.14,1.21,64.68,1.41,97.09a358.9,358.9,0,0,1,50.17-4.28c3.89-.06,21.57,2.67,24,.35,3.34-3.15-.33-2.56-.09-6.66.32-5.31-2.23-9.66-1.27-16,1.13-7.39,3.38-14.71,4.68-22.1a323.35,323.35,0,0,0,4.68-44.88c.45-13.34,0-27.18-5.77-39.24-14.15-29.73-59.77-29.19-72.29,1.85-3.71,9.19-5,19.15-5.41,29.08"/><path class="cls-13" d="M468.89,677.54,456.5,700.12q1,34.21,1.94,68.44l.9,31.54c.1,3.65.19,7.3.31,10.95.05,1.64-.4,4.39.53,5.73,2,2.9,9.45,2,12.68,2.25,5.05.4,10.16.81,14.91,2.55,3.17,1.16,6.17,2.91,9.5,3.38a2.83,2.83,0,0,0,2.18-.36,3.13,3.13,0,0,0,.83-2.32c1.16-15.66,1.19-31.8,2.06-47.63.68-12.45,2.36-25,1.77-37.46A266.69,266.69,0,0,0,499,699c-1.45-7.45-3.16-15-7.26-21.44-4.65-7.24-11.23-10.14-19.34-11.77-2.86-.58-13.52-4.61-11.74,1.9.88,3.22,6,7.25,8.19,9.83"/><path class="cls-13" d="M441.93,679.67l12.39,22.58c-.26,0-1.57,55.35-1.67,59.09Q452,782.66,451.44,804c-.12,3.95.41,8.58-.36,12.46-1.08,5.42-6.78,4.35-11.64,4.79-10.64,1-21.84,2.78-32.5,2.24-3.08-.16,1-64.35,1-70.34,0-21.55-4.47-45.46,6.48-65,3.18-5.69,8.79-14.8,15-17.61,5.77-2.62,14-3.06,20.31-4.53l.33,4.07Z"/><path class="cls-6" d="M468.83,625a25,25,0,0,1,3.06,11.29c.05,1,.12,2.25,1,2.87s.11,2.11.8,1.22,3-4,3.13-5.07a41.28,41.28,0,0,0,0-7.86c-.22-2.27-.68-4.65-2.17-6.38a12.94,12.94,0,0,0-3.22-2.45,16.56,16.56,0,0,0-5.34-2.4c-3.33-.62-5.37.58-2.43,2.9a20.4,20.4,0,0,1,5.22,5.88"/><path class="cls-4" d="M448,669.57c0,1.61-.3,3.28,1.12,4.53a4.82,4.82,0,0,0,2.5,1,15.52,15.52,0,0,0,7-.49,6.35,6.35,0,0,0,2.54-1.34,3.19,3.19,0,0,0,.9-2.58c.05-1.21.29-2.44.45-3.67a78.75,78.75,0,0,0,.58-8.12c4-.68,8.68-2,10-6.14a13.71,13.71,0,0,0,.45-4.15q.07-8.67.13-17.35a16.76,16.76,0,0,0-.66-5.92c-1.21-3.26-4.26-5.2-7.26-6.42-7.64-3.12-16.55-3-23.6,1.44a12.86,12.86,0,0,0-4.73,4.76c-1.67,3.18-1.46,7.1-1.2,10.77.24,3.38.48,6.77.71,10.15.28,3.89.86,8.37,3.89,10.43,1.6,1.09,3.68,1.29,5.06,2.7,2.41,2.47,1.26,6.15,2,9.14a5.51,5.51,0,0,1,.13,1.28"/><path class="cls-6" d="M475,646.29c-.07-1.08-.54-4.22-2.15-2.24a3.17,3.17,0,0,0-.55,1.93,7.65,7.65,0,0,1-.21,2,3.6,3.6,0,0,1-3.61,2.14,3.54,3.54,0,0,1-1.69-.4,5.33,5.33,0,0,1-1.29-1.18l-2.82-3.24c-1.61-1.85-4.82-1.05-7-.77a14,14,0,0,0-7.07,2.74l-.61.52a7.39,7.39,0,0,1-1.57,1.12c-1.94.95-4.34,0-5.7-1.8-.62-.81-1.2-1.85-2.17-2a2,2,0,0,0-1.88,1.15,5.57,5.57,0,0,0-.54,2.37,17.39,17.39,0,0,0,1.51,8.72c2.81,5.74,8.24,6.45,13.69,6.32l6.47-.15c3.95-.1,8.11-.26,11.44-2.55,2.93-2,4.67-5.46,5.38-9.06a22.47,22.47,0,0,0,.37-5.67m-14.43,8.14a7.56,7.56,0,0,1-6.68.78c-1-.3-.56-2,.42-1.66a6,6,0,0,0,5.46-.6c.87-.58,1.67.9.8,1.48"/><path class="cls-6" d="M475.82,615a31.43,31.43,0,0,0,.84-4.28,8.37,8.37,0,0,1-4.18.36c0-.83,0-1.66,0-2.49s-9.36-1.18-10.12-1.24c-7.12-.59-13.63-1.14-20.07,2.68a19.4,19.4,0,0,0-9.87,14.48,29.7,29.7,0,0,0,4.68,19c0-1.61-.94-5.42-.56-7a13.66,13.66,0,0,1,1.49-4.39,18.11,18.11,0,0,1,6.35-6.66,35.13,35.13,0,0,1,13.87-4.68c4.43-.61,9.84-1.19,14.23,0,2.11.57,2.46,1.09,3.73-1A36.62,36.62,0,0,0,478,615l-2.22,0"/><path class="cls-5" d="M614.54,722.34l-159,15.8-159-15.8a7.31,7.31,0,0,0-8,7.77l6.63,157.3a7.32,7.32,0,0,0,6.53,6.86C327.91,897,430,907.15,441.44,908.45a1.76,1.76,0,0,1,1.35.93c.76,1.5,3.52,4.56,12.78,4.56s12-3.06,12.77-4.56a1.76,1.76,0,0,1,1.36-.93c11.44-1.3,113.52-11.49,139.68-14.18a7.32,7.32,0,0,0,6.53-6.86l6.63-157.3a7.31,7.31,0,0,0-8-7.77"/><path class="cls-9" d="M614.54,719.73l-159,15.81-159-15.81a7.33,7.33,0,0,0-8,7.78l6.63,157.29a7.33,7.33,0,0,0,6.53,6.87c26.16,2.69,128.24,12.88,139.69,14.18a1.73,1.73,0,0,1,1.35.93c.76,1.49,3.52,4.56,12.78,4.56s12-3.07,12.77-4.56a1.74,1.74,0,0,1,1.36-.93c11.44-1.3,113.52-11.49,139.68-14.18a7.33,7.33,0,0,0,6.53-6.87l6.63-157.29a7.33,7.33,0,0,0-8-7.78"/><path class="cls-23" d="M456.16,734.39c-73.24-49-147.08-26.8-147.08-26.8V877.71C411.16,857,455.57,899.9,455.57,899.9S500,857,602.05,877.71V707.59s-72.64-22.18-145.89,26.8"/><path class="cls-24" d="M309.08,707.59s-3.27,12.94-14.65,20.71l7.32,162.54s7.33-5.73,7.33-13.13Z"/><path class="cls-24" d="M602.05,707.59s3.27,12.94,14.66,20.71l-7.33,162.54s-7.33-5.73-7.33-13.13Z"/><path class="cls-25" d="M301.75,890.84s101.83-23.3,147.35,17.75h6.47V899.9s-46-43.64-146.49-22.19Z"/><path class="cls-25" d="M609.38,890.84S507.55,867.54,462,908.59h-6.46V899.9s45.95-43.64,146.48-22.19Z"/><path class="cls-26" d="M379.69,697.18c-8.83-.88-17.58-1.23-25.92-1.31-3.85,0-35.46,1.16-35.46,2.24V869.3c0-1.09,31.69-2.29,35.54-2.25,27.22.29,57.8,5.27,81.87,18.56,4,2.22,20.32,10.95,20.32,17.09V736.09a13.39,13.39,0,0,0-3.59-9.17c-18.27-19.55-45.83-27.08-72.76-29.74"/><path class="cls-3" d="M532.4,697.18c8.82-.88,17.58-1.23,25.92-1.31,3.84,0,35.46,1.16,35.46,2.24V869.3c0-1.09-31.69-2.29-35.54-2.25-27.22.29-57.8,5.27-81.87,18.56-4,2.22-20.33,10.95-20.33,17.09V736.09a13.4,13.4,0,0,1,3.6-9.17c18.27-19.55,45.83-27.08,72.76-29.74"/><g class="cls-27"><g class="cls-28"><path class="cls-29" d="M532.4,697.18c8.82-.88,17.58-1.23,25.92-1.31,3.84,0,35.46,1.16,35.46,2.24V869.3c0-1.09-31.69-2.29-35.54-2.25-27.22.29-57.8,5.27-81.87,18.56-4,2.22-20.33,10.95-20.33,17.09V736.09a13.4,13.4,0,0,1,3.6-9.17c18.27-19.55,45.83-27.08,72.76-29.74"/></g></g><g class="cls-27"><g class="cls-30"><path class="cls-29" d="M456,744.33V902.7c0-6.14,16.31-14.87,20.33-17.09,19.3-10.65,42.79-16,65.37-17.8h0c-69.6-30.23-83.28-104.23-85.7-123.48"/></g></g><path class="cls-4" d="M737.17,737.7a2.68,2.68,0,0,0-.71-.23c-2.27-.29-3.63.92-5.88,1.27-1,.15-2.75-1.8-3.62.13-.32.72-.86,2.58-1.53,4.12-1,2.23-3.57,4.47-5.95,5.87-9.37,5.49-20,8.28-30.55,10.72a3.94,3.94,0,0,1-1.83.12c-1.08-.28-1.7-1.37-2.22-2.34a83.18,83.18,0,0,0-8.47-12.85c-2.87-3.58-6.13-7-10.26-9s-9.28-2.34-13.17.08a10.88,10.88,0,0,0-5,8.53c-.44,8.5,10.76,13.9,16.62,18.26A148.44,148.44,0,0,0,682,773.55a6.29,6.29,0,0,0,2.37.9,6.46,6.46,0,0,0,2.66-.51,321.27,321.27,0,0,0,32.37-13.49c2.92-1.37,4.75-4.1,7.47-5.34,1.73-.79,3.66-.17,5.45-.55a17.84,17.84,0,0,0,5.54-2.35c3-2,3.14-5.69,3.61-8.91a4,4,0,0,0-.06-2.06,5.55,5.55,0,0,0-2.4-2.49,10.08,10.08,0,0,0-1.83-1"/><path class="cls-15" d="M663.67,759.22l16.79-12c-.36.25-16.64-26.51-17.66-28.07-3.91-6-8-12.09-14-15.87-12.89-8.07-29.17,3.58-24.22,18.51,5.38,16.21,17.39,31.72,31.44,41.36a2.11,2.11,0,0,0,1,.45,2.26,2.26,0,0,0,1.38-.56l5.3-3.8"/><polygon class="cls-4" points="650.82 967.35 650.58 984.63 660.82 984.76 661.09 965.61 650.82 967.35"/><path class="cls-6" d="M659.9,982.06,651,985l-2.65,2.86.44,6.77,24.07,1.87a5.35,5.35,0,0,0-2.68-8.14l-1.12-.39Z"/><polygon class="cls-4" points="577.04 950.78 570.26 966.68 579.68 970.69 587.2 953.07 577.04 950.78"/><path class="cls-6" d="M579.5,971a7.24,7.24,0,0,0-1.19-1.06c-1.13-.83-10.25-5.67-11-3.49a2.49,2.49,0,0,0,0,1.12,82.62,82.62,0,0,0,4.38,18.4c.92,2.54,2.32,5.35,4.94,6a7.65,7.65,0,0,0,3.52-.19,35.25,35.25,0,0,0,5-1.52,2.72,2.72,0,0,0,1.54-1.07c.62-1.11-.46-2.44-1.59-3s-2.5-1-3-2.19a4.37,4.37,0,0,1-.32-1.68c-.23-4.25.49-8.34-2.16-11.26"/><path class="cls-7" d="M641.36,887.28c-3.36,15.36-13,26.39-23.21,37.69a487.47,487.47,0,0,0-33.07,40.59L571.75,960c3.72-21.58,14-41.38,21.89-61.8,5.51-14.18,10-29.18,10.22-44.52.12-7.62-1.72-14.59-2.71-22-1.23-9.18-1.3-18.6-2.41-27.83-.37-3.09-.58-6.75,1.8-8.76a8.14,8.14,0,0,1,3.82-1.54c50.53-9.79,43.39,64.53,37,93.74"/><path class="cls-7" d="M600.2,806.73a104.82,104.82,0,0,1,2.85-25.15c14.38-.77,30.62.82,44.84,3.71,13.89,2.82,22.56,5.84,22.66,20.91.18,27.72,11,51.34,15.7,78,2.72,15.48-2,29.33-7.19,43.68A485.75,485.75,0,0,0,663.87,978l-14.44-.09c-4.75-21.38-2.79-43.59-3.2-65.48-.28-15.22-1.83-30.79-7.43-45.07-6.14-15.7-15-9.45-25.16-18.55-9.87-8.85-13.39-25.95-13.44-42"/><path class="cls-8" d="M616.52,700a38.23,38.23,0,0,0-4.36,4.18l-3.7,3.95c-4.28,4.57-6.39,11.32-8.23,17.15-9.65,30.67-13.12,72.76-6.85,104.8,23.76,2.06,51.27-3.93,75-7.17,2.31-.32,4.92-.83,6.12-2.83a8,8,0,0,0,.74-4.11c0-20.35-4.3-42.21-8.33-62.27a220,220,0,0,0-6.49-25.06c-2.85-8.69-6.06-18.07-12.72-24.64-7.12-7-20.77-10.51-29.69-5a16.72,16.72,0,0,0-1.47,1"/><path class="cls-4" d="M619.11,704.32,617.82,696a15.89,15.89,0,0,1-1.63-.9c-9.91-6.33-26.54-40.31-.12-47.92,24-6.9,22.75,26.1,18.06,39.86a20.59,20.59,0,0,1-3.45,6.51c-1.09,1.32-1.33,1.07-1.18,2.6s1.63,3.15,2,4.71a6.32,6.32,0,0,1-.74,4.91,6.57,6.57,0,0,1-2.38,2,7.48,7.48,0,0,1-4.8.9,6.05,6.05,0,0,1-4.43-4.35"/><path class="cls-6" d="M639.77,674.58c-2,6.78-3.71,9.38-6.1,12.43-5,6.39-.84-16.26-2.91-24.11a2.32,2.32,0,0,1,0-1.81,2.18,2.18,0,0,1,1.48-.8c10.11-2.18,10.08,6.64,7.52,14.29"/><path class="cls-6" d="M613.23,686.82c-1.63,2.28-5.18,1.67-7.68.41a27.22,27.22,0,0,1-14-28.85c1.91-9.43,13.79-16.5,16.19-4.82.85,4.14-1.67,9.88-1.09,14.47.82,6.57,3.88,12.85,6.61,18.79"/><path class="cls-6" d="M639.66,638.54c1.15.45,2.32.93,3.56,1.41,2.55,1,4.4,1.34,7-.16.75-.42,5.8-5.19,4.59-6.18,8,6.56,1.42,16.14-1.59,22.93-2,4.57-2.46,11-7,14-5,3.29-8.48-.87-13-2.73-4-1.64-8.39-2.53-12.48-4-6.81-2.43-16.92-6.69-14.67-15.73,2.63-10.55,13.32-13.18,22.92-12.37a35.72,35.72,0,0,1,10.71,2.81"/><path class="cls-5" d="M747.18,841.5,722.3,804.06V676.85a2.25,2.25,0,0,1,4.13-1.24l20.75,31.22Z"/><polygon class="cls-3" points="746.07 708.08 724.71 676.38 715.89 678.21 741.49 710.26 741.49 842.63 746.07 841.5 746.07 708.08"/><polygon class="cls-3" points="645.28 698.52 660.52 692.98 741.49 710.26 741.49 838.36 645.28 821.04 645.28 698.52"/><path class="cls-5" d="M734.7,845.46,640.28,832.4a4.5,4.5,0,0,1-3.62-4.41V702.49a4.5,4.5,0,0,1,5.37-4.42l92.67,12.72Z"/><path class="cls-9" d="M747.18,706.83c-.24.95-2.6,2.4-5.69,3.43-3.34,1.12-6.3,1.33-6.76.52h0V845.11a.71.71,0,0,0,0,.29v.06h0c.37.87,3.37.66,6.77-.47s6-2.8,5.69-3.72Z"/><polygon class="cls-23" points="715.89 678.21 715.89 704.8 741.49 710.26 715.89 678.21"/><polygon class="cls-25" points="741.49 710.26 667.79 691.09 667.79 694.54 741.49 710.26"/><polygon class="cls-13" points="647.83 806.86 725.62 817.62 725.62 835.04 647.83 824.28 647.83 806.86"/><g class="cls-31"><g class="cls-32"><path class="cls-29" d="M640.28,832.4l94.42,13.06V710.79S722.3,813,640.28,832.4"/></g></g><path class="cls-4" d="M695.71,793.54a2.4,2.4,0,0,0-.56-.5c-2-1.17-3.7-.6-5.9-1.18-1-.26-1.8-2.75-3.37-1.32-.58.53-1.82,2-3,3.16-1.79,1.66-5.05,2.68-7.8,3-10.78,1.3-21.62-.37-32.29-2.36a3.84,3.84,0,0,1-1.72-.62c-.88-.68-1-1.93-1.1-3a83.82,83.82,0,0,0-2.64-15.16c-1.2-4.42-2.84-8.86-5.83-12.33s-7.58-5.85-12.11-5.18a10.88,10.88,0,0,0-8,5.81c-3.79,7.62,4.32,17,7.95,23.37a147.26,147.26,0,0,0,11.54,17.18,6.22,6.22,0,0,0,1.81,1.77,6.45,6.45,0,0,0,2.64.6,320.37,320.37,0,0,0,35.07.54c3.22-.08,6-1.86,9-1.91,1.91,0,3.43,1.3,5.23,1.67a17.58,17.58,0,0,0,6,.05c3.53-.63,5.16-4,6.86-6.73a3.8,3.8,0,0,0,.77-1.91,5.57,5.57,0,0,0-1.2-3.24,10.92,10.92,0,0,0-1.26-1.69"/><path class="cls-8" d="M619.72,784l20.19-4.33c-.43.09-4.67-30.94-5-32.78-1.21-7-2.51-14.28-6.54-20.15-8.6-12.54-28.17-8.36-29.58,7.31-1.54,17,3.29,36,12.32,50.47a2.14,2.14,0,0,0,.74.81,2.17,2.17,0,0,0,1.49,0l6.37-1.36"/><path class="cls-6" d="M378.82,962.8c-.84-7.26-4.48-13-11.21-16.19-5.46-2.57-11.6-3.17-17.58-3.94-13.32-1.71-26-3.41-39.48-2.89-10.76.43-17.39,9.6-22.42,18.65-3.17,5.71-2.29,8.38,1.7,13.16a48.44,48.44,0,0,0,13.15,11c9.88,5.61,25.06,4.23,35.95,3a83.78,83.78,0,0,0,29.49-9c5.9-3.08,11.22-6.71,10.4-13.79"/><path class="cls-6" d="M311.53,982.56a128.56,128.56,0,0,0-4.67,12.79,21.75,21.75,0,0,0-1.25,7.07c.2,5.62,6.46,9.7,10.55,4.5a28.26,28.26,0,0,0,4.25-7.55c1.5-4-1.67-1.67-4.35-2.9-3.08-1.42-3-2.52-1.69-5.41,1.68-3.71,3.68-6.14,3.44-10.42-.07-1.18-.4-2.55-1.49-3a2.42,2.42,0,0,0-2.48.61,6.89,6.89,0,0,0-1.41,2.27c-.31.68-.61,1.37-.9,2.06"/><path class="cls-33" d="M332.4,850.22l10.89,1.06a68.56,68.56,0,0,0,1-9.72c3.16-.54,6.88-1.58,8-5a11.08,11.08,0,0,0,.37-3.36l.12-14a13.46,13.46,0,0,0-.52-4.79c-.94-2.64-3.36-4.22-5.74-5.21-6.06-2.54-13.12-2.45-18.73,1.13a10.37,10.37,0,0,0-3.76,3.85c-1.32,2.57-1.16,5.75-1,8.72.18,2.74.37,5.48.55,8.22.22,3.15.67,6.78,3.07,8.45,1.27.89,2.92,1.05,4,2.2,1.93,2,1,5.61,1.75,8.46"/><path class="cls-6" d="M347.27,814.15a4.93,4.93,0,0,1,.39.8c.52,1.44.21,3.09.73,4.54.82,2.3,3.55,3.64,4,6,.36,2-.95,3.86-1,5.85-.08,2.18,1.35,4.22,1.17,6.37a14.16,14.16,0,0,1-2.38,6c.34-.47,3.47-.36,4.27-.87a3.29,3.29,0,0,0,1.71-2.56c.34-1.29,0-2.56.58-3.88.67-1.63,2.09-2.84,2.57-4.57.65-2.36-.65-4.82-.59-7.27.08-3.71,3.22-7.25,2-10.75-.72-2.06-2.75-3.34-3.91-5.18a27.73,27.73,0,0,1-1.84-4.58c-.63-1.53-1.67-3.06-3.27-3.5a27.42,27.42,0,0,0-2.73-.27c-1.56-.26-2.88-1.31-4.39-1.8-2.16-.68-5.91,1.56-7.14,3.4s-.55,3.36.75,4.93c2.17,2.63,7.32,4.28,9.12,7.27"/><path class="cls-6" d="M316.43,804a41.06,41.06,0,0,0-4,2.81c-2.26,2.19-2.63,5.64-2.66,8.79,0,2.8-1.2,5.3-.85,8.22a7.15,7.15,0,0,0,2.73,5c2,1.4,5.13,1.58,6.06,3.85,1,2.47-1.52,5.65.08,7.78.89,1.17,2.58,1.32,3.83,2.1s2.12,2.45,3,3.84,2.15,2.78,3.79,2.79c0-2.5.06-4.48-1-6.74-.65-1.31-2.52-3.73-1.14-5.2.86-1.21,2.95-1.64,3-3.12a3.32,3.32,0,0,0-.88-1.86,8.58,8.58,0,0,1-.76-7.77,11.06,11.06,0,0,1,5.42-5.79c2.82-1.43,2.35-2.12,3.13-4.87.72-2.52,2.13-3.14,4.38-4.09,2-.86,2.66-1.39,3.38-3.3.52-1.4,1.17-3.08.34-4.62a9.29,9.29,0,0,0-2.92-2.9c-2.34-1.72-5-3.52-7.84-3.26-1.61.14-3.1.92-4.71,1-1.07.08-2.14-.13-3.21-.15a8.5,8.5,0,0,0-5.21,1.68c-1.47,1.12-1.41,2.27-2.21,3.84a5.47,5.47,0,0,1-1.67,1.88"/><path class="cls-6" d="M322.72,793.65c.25-1.74,0-4-1.64-4.56-.92-.3-1.93.07-2.88-.11-2-.37-2.75-2.8-3.84-4.54a1.52,1.52,0,0,0-.63-.65,2.51,2.51,0,0,0-1.3.06c-2,.28-3.56-1.67-5.46-2.35a4.74,4.74,0,0,0-5.93,3.07c-.27,1-.2,2-.45,3-1,4-6.88,5.84-6.95,10-.05,2.81,2.74,5.45,1.72,8.07-.65,1.68-2.77,2.85-2.5,4.63a2.49,2.49,0,0,0,2.57,1.86,5,5,0,0,0,3.07-1.46c1.36-1.24,2.37-2.81,3.67-4.11a6.24,6.24,0,0,1,4.86-2.17c1.77.19,3.39,1.53,5.13,1.21,1.4-.26,2.42-1.53,3.79-1.91s2.64.13,4,.19,2.94-.67,3-2a3.09,3.09,0,0,1,0-1c.27-.86,1.73-.84,2-1.7-.72-1.06-1.69-.66-2.21-2a7.7,7.7,0,0,1,.05-3.57"/><path class="cls-3" d="M342.25,846.7c5.07-.67,10.21-1.59,14.45.26,3.6,1.57,3.54,6.11,4.34,9.54,2.66,11.35,4.66,22.84,6.22,34.39.75,5.52,2,11.43,2,17,0,4.47-1.15,8.82-.8,13.39.26,3.5,1.75,7.28,5,8.72,1.62.72,3.47.75,5.09,1.46s3,2.62,2.19,4.19a4.35,4.35,0,0,1-1.9,1.61l-12,6.69a63.21,63.21,0,0,1-9.43,4.6,50.55,50.55,0,0,1-14.61,2.5,120.24,120.24,0,0,1-38-4.17c-6.65-1.83-13.07-5.09-11.46-12.61,1.66-7.74,4.87-15.46,8.33-22.55,4.19-8.58,5.44-18.92,8.4-28s6.19-18.3,9.4-27.41l0-.1c1.17-3.33,1.65-6.62,4.23-9.33,3.53-3.69,5.23-.75,9.24,0a30,30,0,0,0,9.33-.22"/><path class="cls-33" d="M354.69,987.17l3.46.18c1.25.07,2.65.09,3.58-.75a3.21,3.21,0,0,0,.09-4.18,7.45,7.45,0,0,0-3.86-2.34A41.2,41.2,0,0,0,347,978.45a2.73,2.73,0,0,0-1.1.12,2.31,2.31,0,0,0-1.14,1.48c-2.09,6.37,5.43,6.88,9.91,7.12"/><path class="cls-33" d="M310.32,998a2.79,2.79,0,0,0,.1,1.52,2.14,2.14,0,0,0,.77.81c2.38,1.51,5.58-.12,7.4-2.27s3.05-4.88,5.37-6.48c5.32-3.66.45-10.37-5.1-8.83-6.49,1.8-7.85,9.58-8.54,15.25"/><path class="cls-6" d="M381.94,963.48c4.59-3.37,9.19-7.19,10.87-12.87s-.69-13.71-6.61-17c-7.22-4-14.31.91-19.46,5.55-10.54,9.47-22,17.86-33.27,26.53-3.8,2.93-17,13.72-17,13.72-.37,1.52,6.71,15.27,8.59,14.77,20.5-5.42,40.43-18.65,56.85-30.72"/><path class="cls-6" d="M278.78,970c-4.49-2.19-9-4.83-10.79-10.08s.24-13.9,5.81-18.71c6.78-5.87,13.72-2.8,18.79.51,10.37,6.76,21.63,12.17,32.64,17.94,3.72,2,16.66,9.34,16.66,9.34.39,1.43-6,17-7.78,17-19.78-.11-39.25-8.2-55.33-16"/><path class="cls-6" d="M347,989.94a127.12,127.12,0,0,0,12.69,5.35,22,22,0,0,0,7.07,1.62c5.69.07,10.12-6,5.07-10.44a28.58,28.58,0,0,0-7.41-4.66c-4-1.71-1.77,1.6-3.15,4.25-1.58,3-2.69,2.91-5.54,1.44-3.67-1.89-6-4-10.35-4-1.2,0-2.6.28-3.12,1.35a2.41,2.41,0,0,0,.49,2.53,6.8,6.8,0,0,0,2.22,1.54l2,1"/><path class="cls-33" d="M406.27,914.19a3.32,3.32,0,0,1-.12-.82c.13-2.5,1.7-3.73,2.51-6.1.36-1.06-1.42-3.31.84-3.88s6.88-.19,8.46-2.33c.7-.95,1.57-2.19,2.71-1.91a2.35,2.35,0,0,1,1,.65c9.59,9.27.27,20.44-10.18,20.09a4.15,4.15,0,0,1-2.21-.46,6.11,6.11,0,0,1-2.23-3.06,11.33,11.33,0,0,1-.78-2.18"/><path class="cls-3" d="M424.65,915.86a6.18,6.18,0,0,0,6.91-2,9.24,9.24,0,0,0,1.66-7.31,18.72,18.72,0,0,0-3-7c-1.67-2.56-3.77-5-6.62-6.1a15.13,15.13,0,0,0-5-.78,4.41,4.41,0,0,0-3.25.84,4.29,4.29,0,0,0-1,2.21c-1.14,5.22-.24,6,3.18,9.45a41.47,41.47,0,0,1,7.17,10.72"/><path class="cls-23" d="M267.22,858.7v-8s43-4,68.82,13.22Z"/><path class="cls-3" d="M258.42,857.85l5.75-4.44s35.15-6.71,71.87,10.5v95.54s-24.9-17.9-77.62-10.87Z"/><path class="cls-23" d="M404.86,858.7v-8s-43-4-68.82,13.22Z"/><path class="cls-3" d="M413.67,857.85l-5.76-4.44s-35.14-6.71-71.87,10.5v95.54s24.9-17.9,77.63-10.87Z"/><path class="cls-5" d="M336.05,863.86c4-.22,7.05-1.17,7.22-2.32,0,0,0,0,.07-.08l-.06,0,.2-.06c1.14-.5,6.51-1.58,8.14-1.93l.35-.07.06,0a122.35,122.35,0,0,1,13.82-2.61c17.65-2.77,30.6-2.27,37.88-1.21a39.29,39.29,0,0,1,7.91,1.76,8,8,0,0,1,1.31.55h0a5.45,5.45,0,0,1,2.16,2,6.63,6.63,0,0,1,.8,3.8V948c0,2.38-2,4.74-4.32,4.31a136.47,136.47,0,0,0-35.17-1.93A147.25,147.25,0,0,0,348.22,955c-3,.82-6.76,1.46-9.51,2.94a3.07,3.07,0,0,1-.85.3,2.78,2.78,0,0,1-.58.06,2.93,2.93,0,0,1-.67-.08l-.68-.24a3,3,0,0,1-1.67-2.71V865.92c0-.72.63-1.41,1.79-2.06"/><path class="cls-5" d="M336.06,863.86c-4-.22-7.05-1.17-7.21-2.32a.17.17,0,0,0-.07-.08l.06,0-.21-.06c-1.14-.5-6.5-1.58-8.14-1.93l-.34-.07-.07,0a122.35,122.35,0,0,0-13.82-2.61c-17.64-2.77-30.59-2.27-37.88-1.21a39.19,39.19,0,0,0-7.9,1.76,7.36,7.36,0,0,0-1.31.55h0a5.41,5.41,0,0,0-2.17,2,6.71,6.71,0,0,0-.79,3.8V948c0,2.38,2,4.74,4.31,4.31a136.49,136.49,0,0,1,35.17-1.93A147.22,147.22,0,0,1,323.9,955c3,.82,6.75,1.46,9.5,2.94a3.19,3.19,0,0,0,.85.3,2.86,2.86,0,0,0,.58.06,3,3,0,0,0,.68-.08l.67-.24a3,3,0,0,0,1.68-2.71V865.92c0-.72-.63-1.41-1.8-2.06"/><g class="cls-34"><g class="cls-35"><path class="cls-29" d="M328.82,878.44s-8.57,55.77-61.6,72.81h0a137.13,137.13,0,0,1,28.46-.85A147.22,147.22,0,0,1,323.9,955c3,.82,6.75,1.46,9.5,2.94a3.19,3.19,0,0,0,.85.3,2.86,2.86,0,0,0,.58.06,3,3,0,0,0,.68-.08l.67-.24a3,3,0,0,0,1.68-2.71V878.44Z"/></g></g><path class="cls-9" d="M336.08,863.68c-4,0-7.26-1.14-7.24-2.24l0,95.53c0,1.37,3.25,2.48,7.26,2.48s7.26-1.11,7.26-2.48V861.46c-.36,1.26-3.25,2.22-7.26,2.22"/><g class="cls-36"><g class="cls-37"><path class="cls-29" d="M415.12,859.83a5.45,5.45,0,0,0-2.16-2h0a8,8,0,0,0-1.31-.55,39.29,39.29,0,0,0-7.91-1.76c-7.28-1.06-20.23-1.56-37.88,1.21A122.35,122.35,0,0,0,352,859.36l-.06,0-.35.07c-1.63.35-7,1.43-8.14,1.93l-.2.06.06,0s-.07,0-.07.08a.75.75,0,0,1-.08.24c-.72,1.1-3.45,1.9-7.11,1.9-3.85,0-7-1-7.23-2.11v0h0a.28.28,0,0,1,0-.09v.08l-.06-.06.06,0-.21-.06c-1.14-.5-6.5-1.58-8.14-1.93l-.34-.07-.07,0a122.35,122.35,0,0,0-13.82-2.61c-17.64-2.77-30.59-2.27-37.88-1.21a39.19,39.19,0,0,0-7.9,1.76,7.36,7.36,0,0,0-1.31.55h0a5.41,5.41,0,0,0-2.17,2,6.71,6.71,0,0,0-.79,3.8v1.59a6.69,6.69,0,0,1,.79-3.8,5.41,5.41,0,0,1,2.17-2h0a8.19,8.19,0,0,1,1.31-.56,39.18,39.18,0,0,1,7.9-1.75c7.29-1.07,20.24-1.56,37.88,1.2A122.38,122.38,0,0,1,320.08,861h.07l.34.08c1.64.35,7,1.42,8.14,1.93l.21,0a.31.31,0,0,0,0,.1h0v0c.24,1.06,3.38,2.11,7.23,2.11,3.66,0,6.39-.8,7.11-1.9a.81.81,0,0,0,.08-.25s0,0,.07-.07l-.06,0,.2,0c1.14-.51,6.51-1.58,8.14-1.93L352,861H352a122.38,122.38,0,0,1,13.82-2.62c17.65-2.76,30.6-2.27,37.88-1.2a39.27,39.27,0,0,1,7.91,1.75,9.05,9.05,0,0,1,1.31.56h0a5.45,5.45,0,0,1,2.16,2,6.62,6.62,0,0,1,.8,3.8v-1.59a6.63,6.63,0,0,0-.8-3.8"/></g></g><g class="cls-34"><g class="cls-38"><path class="cls-29" d="M328.84,861.44l0,95.53c0,1.16,2.31,2.13,5.44,2.4V863.6c-3.13-.28-5.44-1.23-5.42-2.16"/></g></g><path class="cls-9" d="M402.85,866.08c-7-1-19.49-1.5-36.49,1.16-3.23.43-8.86,1.58-11.78,2.2a2.36,2.36,0,0,0-1.88,2.32v19.29a2.37,2.37,0,0,0,2.88,2.32c6.9-1.51,14.32-3.61,22.88-4.13a118.52,118.52,0,0,1,25.54.83,2.37,2.37,0,0,0,2.69-2.35v-19a2.36,2.36,0,0,0-2-2.34q-.91-.15-1.86-.27"/><path class="cls-33" d="M269.69,905a2.91,2.91,0,0,0,.12-.82c-.13-2.51-1.7-3.74-2.51-6.1-.36-1.06,1.42-3.31-.84-3.88s-6.88-.19-8.46-2.33c-.7-1-1.57-2.2-2.71-1.91a2.26,2.26,0,0,0-1,.65c-9.59,9.27-.27,20.44,10.18,20.09a4.25,4.25,0,0,0,2.21-.46,6.11,6.11,0,0,0,2.23-3.06,11.33,11.33,0,0,0,.78-2.18"/><path class="cls-3" d="M251.32,906.65a6.2,6.2,0,0,1-6.92-2,9.24,9.24,0,0,1-1.66-7.31,18.7,18.7,0,0,1,3-7c1.66-2.55,3.76-5,6.61-6.09a15,15,0,0,1,5-.79,4.49,4.49,0,0,1,3.24.84,4.32,4.32,0,0,1,1,2.22c1.14,5.22.24,6-3.18,9.45a41,41,0,0,0-7.16,10.72"/><path class="cls-4" d="M504.52,714.78a2.62,2.62,0,0,1-.55-.43c-1.34-1.52-1-3-1.84-4.72-.37-.79-2.82-1.29-1.66-2.66.43-.51,1.69-1.61,2.61-2.69,1.69-1.95.12-4.79,1.87-7,1.51-1.88,6.95-3.62,8.85-.85.72,1-.27,2.71-.12,3.84.23,1.73,1.63,2.89,2.26,4.5a12.71,12.71,0,0,1,.79,4.89c-.16,2.91-3.11,4.46-5.52,6a3.74,3.74,0,0,1-1.72.75,6.21,6.21,0,0,1-3.22-.77,12.08,12.08,0,0,1-1.75-.91"/><path class="cls-13" d="M520.09,706.46a6.06,6.06,0,0,0,3-6.37,9,9,0,0,0-4.29-6,18.17,18.17,0,0,0-7.13-2.33c-3-.43-6.12-.49-8.76.9a14.76,14.76,0,0,0-3.83,3.17,4.38,4.38,0,0,0-1.49,2.93,4.23,4.23,0,0,0,1,2.17c3.09,4.23,4.23,4.06,9,3.8a40.6,40.6,0,0,1,12.52,1.69"/><path class="cls-4" d="M400.13,710.55a2.38,2.38,0,0,0,.61-.33c1.58-1.28,1.5-2.76,2.6-4.36.49-.71,3-.8,2.07-2.35-.34-.57-1.4-1.87-2.14-3.08-1.34-2.2.68-4.74-.69-7.19-1.18-2.11-6.26-4.72-8.6-2.3-.87.91-.17,2.73-.5,3.81-.52,1.68-2.09,2.59-3,4.07a12.8,12.8,0,0,0-1.59,4.69c-.31,2.91,2.35,4.91,4.46,6.86a3.75,3.75,0,0,0,1.57,1,6.18,6.18,0,0,0,3.3-.22,11.5,11.5,0,0,0,1.88-.62"/><path class="cls-13" d="M386.14,699.79a6.07,6.07,0,0,1-1.92-6.78,9,9,0,0,1,5.2-5.17,18.3,18.3,0,0,1,7.42-1.13c3,0,6.12.52,8.5,2.33a14.44,14.44,0,0,1,3.25,3.75,4.34,4.34,0,0,1,1,3.13,4.19,4.19,0,0,1-1.32,2c-3.74,3.66-4.83,3.3-9.49,2.27a40.53,40.53,0,0,0-12.63-.39"/><path d="M100.8,249.42a.93.93,0,0,1-.6-.8q0-1.27,1.92-1.68a11.33,11.33,0,0,0,4.52-1.8,4.24,4.24,0,0,0,1.32-3.48v-33a35.51,35.51,0,0,0-.28-5.64,2.14,2.14,0,0,0-1-1.64,9.7,9.7,0,0,0-3.76-.48h-1.76a10.28,10.28,0,0,0-4.8,1.2,10,10,0,0,0-3.68,3.12,24.07,24.07,0,0,1-2.28,2.92,3,3,0,0,1-2.12,1.16c-.75,0-1.12-.48-1.12-1.44a3.85,3.85,0,0,1,.48-2,36.74,36.74,0,0,0,2.28-5.28,23.14,23.14,0,0,0,.92-4.88c.16-1.38.82-2.08,2-2.08a1.21,1.21,0,0,1,.84.56c.29.38.46.62.52.72a10.59,10.59,0,0,0,1.2,1.44,6.22,6.22,0,0,0,2.52.92,16.69,16.69,0,0,0,3.24.36h30.08a14.13,14.13,0,0,0,3.32-.36,7.21,7.21,0,0,0,2.2-.84c.37-.26.93-.69,1.68-1.28a6,6,0,0,1,1-.84,2,2,0,0,1,1.12-.36c.58,0,.88.46.88,1.36a14.14,14.14,0,0,1-.16,1.68c-.27,1-.46,1.6-.56,1.92s-.26,1.16-.6,2.52a15.3,15.3,0,0,0-.52,3.8v1.52c0,2-.46,3-1.36,3a1.41,1.41,0,0,1-1.2-.72,10.41,10.41,0,0,1-1-2.48,7,7,0,0,0-7.84-5.6H124a3.8,3.8,0,0,0-2.32.6,3.85,3.85,0,0,0-1.16,2.4,30.46,30.46,0,0,0-.36,5.48v32.24a4.19,4.19,0,0,0,1.28,3.36,11.58,11.58,0,0,0,4.48,2,6.74,6.74,0,0,1,1.44.64,1.09,1.09,0,0,1,.48,1,1,1,0,0,1-.48.88,2.07,2.07,0,0,1-1.2.32c-2,0-4.08-.08-6.32-.24-2.88-.1-4.83-.16-5.84-.16s-3,.06-5.76.16q-3.28.24-6.24.24A2.52,2.52,0,0,1,100.8,249.42Z"/><path d="M142.52,248.62a1.12,1.12,0,0,1,.44-.92,4.66,4.66,0,0,1,1.4-.68,7.77,7.77,0,0,0,2.32-1.08,2.78,2.78,0,0,0,.72-2V205.5a10,10,0,0,0-.64-3.92,3.29,3.29,0,0,0-2.48-1.84c-.59-.1-.88-.5-.88-1.2s.26-1.09.8-1.2a53.56,53.56,0,0,0,6.28-1.88l4.44-1.56,1.52-.56a2.64,2.64,0,0,1,1-.24c.53,0,.8.32.8,1,0,.38-.07,1.1-.2,2.16s-.23,2.19-.28,3.36v18.48c0,1.28.16,2.06.48,2.32a35.12,35.12,0,0,1,5.48-3.92,12.36,12.36,0,0,1,6.2-1.52,9.31,9.31,0,0,1,7.2,3.08,11.89,11.89,0,0,1,2.8,8.28v17.44a2.7,2.7,0,0,0,.68,2.12,7,7,0,0,0,2.2,1.16,3.7,3.7,0,0,1,1.32.6,1.24,1.24,0,0,1,.44,1c0,.75-.59,1.12-1.76,1.12a33.44,33.44,0,0,1-4.4-.24c-1.5-.1-2.75-.16-3.76-.16s-2.3.06-3.68.16a25.78,25.78,0,0,1-4,.24c-1.34,0-2-.4-2-1.2s.56-1.2,1.68-1.52a5.8,5.8,0,0,0,2.08-1.16,3,3,0,0,0,.72-2.28V227.82a6.6,6.6,0,0,0-1.56-4.4,4.61,4.61,0,0,0-3.56-1.84,9,9,0,0,0-5.44,1.76,2.23,2.23,0,0,0-.84,1.08,5.85,5.85,0,0,0-.2,1.8v17.52a2.71,2.71,0,0,0,.68,2.08,5.68,5.68,0,0,0,2,1.12c1.12.43,1.68,1,1.68,1.6q0,1.2-1.44,1.2a40.52,40.52,0,0,1-4.48-.24c-1.71-.1-3-.16-3.84-.16s-2.14.06-3.84.16a40.65,40.65,0,0,1-4.48.24C143.05,249.74,142.52,249.37,142.52,248.62Z"/><path d="M195.08,248.34a15.44,15.44,0,0,1-5.4-6.28,20,20,0,0,1-2-9A18.41,18.41,0,0,1,190,224a17.52,17.52,0,0,1,6.36-6.6,16.68,16.68,0,0,1,8.76-2.44,13.28,13.28,0,0,1,6.16,1.44,11.13,11.13,0,0,1,4.4,4,10.45,10.45,0,0,1,1.6,5.6,3.6,3.6,0,0,1-.6,2.32,2.31,2.31,0,0,1-1.88.72h-16a2,2,0,0,0-1.64.64,3.46,3.46,0,0,0-.52,2.16,10.93,10.93,0,0,0,3,7.8,9.74,9.74,0,0,0,7.44,3.16,10.28,10.28,0,0,0,4.16-.84,19.36,19.36,0,0,0,4-2.44,2.47,2.47,0,0,1,1.12-.64c.53,0,.8.35.8,1a5.82,5.82,0,0,1-.64,2.4,12.47,12.47,0,0,1-5,5.84,15.37,15.37,0,0,1-8.76,2.48A13.58,13.58,0,0,1,195.08,248.34Zm8.56-22.68c1.22,0,2.18,0,2.88-.08a8.67,8.67,0,0,0,1.84-.32,1.26,1.26,0,0,0,.64-.8,4,4,0,0,0,.24-1.44,4.64,4.64,0,0,0-1.48-3.48,5.12,5.12,0,0,0-3.64-1.4,6.13,6.13,0,0,0-4.48,2,5.82,5.82,0,0,0-1.92,4.36,1,1,0,0,0,1.12,1.12Z"/><path d="M240.44,270.46l-.48-.32a.94.94,0,0,1-.48-.8,1.21,1.21,0,0,1,.44-1,3.62,3.62,0,0,1,1.4-.6,6.63,6.63,0,0,0,2.4-1.16,2.48,2.48,0,0,0,.64-1.88V226.38a5.29,5.29,0,0,0-.92-2.92,3.84,3.84,0,0,0-2.44-1.72,1.5,1.5,0,0,1-.72-.44,1.55,1.55,0,0,1-.24-1,1.23,1.23,0,0,1,.88-1.36,62.74,62.74,0,0,0,6.08-1.68,39.46,39.46,0,0,0,5.44-2.16,4.58,4.58,0,0,0,.68-.32,1.58,1.58,0,0,1,.68-.24q.72,0,.72,1l-.16,1.76-.24,2.88c0,.54,0,.86.16,1a14.59,14.59,0,0,1,3-2.28A27.64,27.64,0,0,1,262,216.5a13.84,13.84,0,0,1,4.92-1,11.89,11.89,0,0,1,7.16,2.24,14.73,14.73,0,0,1,4.72,5.8,18,18,0,0,1,1.64,7.56,19.9,19.9,0,0,1-2.48,9.56,20.43,20.43,0,0,1-6.76,7.44,16.37,16.37,0,0,1-9.24,2.84,14.81,14.81,0,0,1-3.36-.48,17.87,17.87,0,0,1-3.52-1.2c-.22,0-.32.48-.32,1.44V264a2.77,2.77,0,0,0,1,2.32,9.26,9.26,0,0,0,3.32,1.44c1.17.38,1.76.91,1.76,1.6a1,1,0,0,1-.44.8,1.51,1.51,0,0,1-.92.32c-1.71,0-3.42-.08-5.12-.24-2.24-.1-3.76-.16-4.56-.16s-2.27.06-4.08.16a42.16,42.16,0,0,1-4.64.24Zm24.4-24.56a10.93,10.93,0,0,0,3.08-4.32,18.74,18.74,0,0,0,1.32-7.6q0-7.59-2.52-10.32a6.8,6.8,0,0,0-8.32-2.08,8.76,8.76,0,0,0-2.48,1.56c-.67.62-1,1.14-1,1.56l-.16,13.12a12,12,0,0,0,.84,4.24,9.4,9.4,0,0,0,2.44,3.72,5.23,5.23,0,0,0,3.68,1.48A5.39,5.39,0,0,0,264.84,245.9Z"/><path d="M291.48,248.34a15.44,15.44,0,0,1-5.4-6.28,20,20,0,0,1-2-9,18.41,18.41,0,0,1,2.32-9.12,17.52,17.52,0,0,1,6.36-6.6,16.68,16.68,0,0,1,8.76-2.44,13.28,13.28,0,0,1,6.16,1.44,11.13,11.13,0,0,1,4.4,4,10.45,10.45,0,0,1,1.6,5.6,3.6,3.6,0,0,1-.6,2.32,2.31,2.31,0,0,1-1.88.72h-16a2,2,0,0,0-1.64.64,3.46,3.46,0,0,0-.52,2.16,10.93,10.93,0,0,0,3,7.8,9.74,9.74,0,0,0,7.44,3.16,10.28,10.28,0,0,0,4.16-.84,19.36,19.36,0,0,0,4-2.44,2.47,2.47,0,0,1,1.12-.64c.53,0,.8.35.8,1a5.82,5.82,0,0,1-.64,2.4,12.47,12.47,0,0,1-5,5.84,15.37,15.37,0,0,1-8.76,2.48A13.58,13.58,0,0,1,291.48,248.34ZM300,225.66c1.22,0,2.18,0,2.88-.08a8.67,8.67,0,0,0,1.84-.32,1.26,1.26,0,0,0,.64-.8,4,4,0,0,0,.24-1.44,4.64,4.64,0,0,0-1.48-3.48,5.12,5.12,0,0,0-3.64-1.4,6.13,6.13,0,0,0-4.48,2,5.82,5.82,0,0,0-1.92,4.36,1,1,0,0,0,1.12,1.12Z"/><path d="M317.84,249.46a.9.9,0,0,1-.44-.84,1.21,1.21,0,0,1,.44-1,3.64,3.64,0,0,1,1.39-.6,5.74,5.74,0,0,0,2.37-1.2,2.58,2.58,0,0,0,.59-1.84v-18.4a6.41,6.41,0,0,0-.51-2.84,3,3,0,0,0-1.88-1.4,1.36,1.36,0,0,1-1-1.44,1.24,1.24,0,0,1,1-1.36,48,48,0,0,0,5.63-1.64,50.66,50.66,0,0,0,5.25-2.12,3.71,3.71,0,0,1,1.84-.88c.48,0,.71.3.71.88l-.23,6.32c0,.48.1.72.31.72A22.71,22.71,0,0,1,338,216.9a8.94,8.94,0,0,1,5.36-2,6.16,6.16,0,0,1,3.87,1,3.36,3.36,0,0,1,1.25,2.76,7.17,7.17,0,0,1-1.48,4c-1,1.42-2,2.12-3.16,2.12a7.48,7.48,0,0,1-3.12-1.12l-1.32-.6a4.42,4.42,0,0,0-1.64-.44q-5.13,0-5.12,7.6v13a2.84,2.84,0,0,0,1,2.32,8.77,8.77,0,0,0,3.28,1.44c1.17.32,1.76.86,1.76,1.6a1,1,0,0,1-.41.8,1.43,1.43,0,0,1-1,.32c-1.7,0-3.41-.08-5.12-.24-2.13-.1-3.62-.16-4.47-.16s-2.27.06-4.08.16a42.29,42.29,0,0,1-4.64.24A2.1,2.1,0,0,1,317.84,249.46Z"/><path d="M351,249.42a.94.94,0,0,1-.52-.8,1.36,1.36,0,0,1,.36-1A2.78,2.78,0,0,1,352,247a7.6,7.6,0,0,0,2.76-1.2,2.54,2.54,0,0,0,.6-1.92V221.1c-1.65,0-3,0-4.16-.16-.26-.05-.52-.34-.76-.88a3.54,3.54,0,0,1-.36-1.44c0-.32.24-.58.72-.8s2.11-.85,4.56-1.92q.4-8,3.64-13.16a19.73,19.73,0,0,1,7.8-7.44,20.24,20.24,0,0,1,9.12-2.28q5.44,0,7.88,1.52a5.17,5.17,0,0,1,2.44,4.72,4.63,4.63,0,0,1-.84,2.92,2.73,2.73,0,0,1-2.28,1.08c-.74,0-1.73-.74-3-2.24a20.68,20.68,0,0,0-3.56-3.16,7.06,7.06,0,0,0-4-1.16q-6.72,0-6.72,11.6v6.56c0,.75.43,1.12,1.28,1.12h9a1.21,1.21,0,0,1,1,.36,1.31,1.31,0,0,1,.32.92,5.69,5.69,0,0,1-.64,2.88c-.26.43-.48.64-.64.64h-7.36a4.79,4.79,0,0,0-2.36.4,1.52,1.52,0,0,0-.6,1.36v20a3.85,3.85,0,0,0,1,3A10.06,10.06,0,0,0,371,247a2.66,2.66,0,0,1,1.24.48,1.24,1.24,0,0,1,.36,1,1.2,1.2,0,0,1-.4.88,1.28,1.28,0,0,1-1,.4c-1.81,0-3.68-.08-5.6-.24-2.34-.1-4-.16-4.88-.16s-2.26.06-4.08.16a42,42,0,0,1-4.64.24A2,2,0,0,1,351,249.42Z"/><path d="M384.75,248.34a15.59,15.59,0,0,1-5.4-6.28,20.15,20.15,0,0,1-2-9,18.52,18.52,0,0,1,2.32-9.12,17.67,17.67,0,0,1,6.36-6.6,16.73,16.73,0,0,1,8.76-2.44,13.25,13.25,0,0,1,6.16,1.44,11,11,0,0,1,4.4,4A10.36,10.36,0,0,1,407,226a3.6,3.6,0,0,1-.6,2.32,2.3,2.3,0,0,1-1.88.72h-16a2,2,0,0,0-1.64.64,3.53,3.53,0,0,0-.52,2.16,11,11,0,0,0,3,7.8,9.77,9.77,0,0,0,7.44,3.16,10.24,10.24,0,0,0,4.16-.84,19.1,19.1,0,0,0,4-2.44,2.58,2.58,0,0,1,1.12-.64c.54,0,.8.35.8,1a5.67,5.67,0,0,1-.64,2.4,12.41,12.41,0,0,1-5,5.84,15.37,15.37,0,0,1-8.76,2.48A13.63,13.63,0,0,1,384.75,248.34Zm8.56-22.68c1.23,0,2.19,0,2.88-.08a8.45,8.45,0,0,0,1.84-.32,1.23,1.23,0,0,0,.64-.8,4,4,0,0,0,.24-1.44,4.6,4.6,0,0,0-1.48-3.48,5.1,5.1,0,0,0-3.64-1.4,6.16,6.16,0,0,0-4.48,2,5.9,5.9,0,0,0-1.92,4.36,1,1,0,0,0,1.12,1.12Z"/><path d="M418,248.34a15.69,15.69,0,0,1-5.4-6.2,19.17,19.17,0,0,1-2-8.72A18.74,18.74,0,0,1,413,224.1a18,18,0,0,1,6.44-6.68,17.09,17.09,0,0,1,9-2.48,16.45,16.45,0,0,1,6,1.12,13.6,13.6,0,0,1,4.84,3.2,2.07,2.07,0,0,1,.72,1.44c0,.54-.49,1.3-1.48,2.28s-1.77,1.48-2.36,1.48a2.27,2.27,0,0,1-1.24-.32,12.65,12.65,0,0,1-1.48-1.12,22.36,22.36,0,0,0-4.2-2.84,8.33,8.33,0,0,0-3.64-1.08,5,5,0,0,0-4.64,2.56q-1.51,2.57-1.52,8.16,0,5.93,2.72,9.28a9.31,9.31,0,0,0,7.68,3.36,10.69,10.69,0,0,0,4.08-.72,14.62,14.62,0,0,0,3.76-2.4l.64-.44a1.37,1.37,0,0,1,.72-.28c.64,0,1,.43,1,1.28a5.1,5.1,0,0,1-.64,2.24,14.61,14.61,0,0,1-2.92,3.76,17.54,17.54,0,0,1-4.92,3.36,13.84,13.84,0,0,1-6,1.36A13.47,13.47,0,0,1,418,248.34Z"/><path d="M451.27,248q-2.68-2.64-2.68-7.6V222a1.12,1.12,0,0,0-.56-1,4.86,4.86,0,0,0-1.92-.4h-1c-.32,0-.61-.29-.88-.88a4,4,0,0,1-.4-1.68.83.83,0,0,1,.48-.8q4-1.44,11.68-8.16a5.81,5.81,0,0,1,.56-.44,8.3,8.3,0,0,1,.72-.44A1.66,1.66,0,0,1,458,208a1.29,1.29,0,0,1,1,.32,2.07,2.07,0,0,1,.16,1.28l-.48,4.72v.32c0,.91.64,1.36,1.92,1.36h9.52c.16,0,.32.19.48.56a2.68,2.68,0,0,1,.24,1,7.26,7.26,0,0,1-.32,2.2c-.21.67-.45,1-.72,1h-7.44a5.05,5.05,0,0,0-2.52.44,1.74,1.74,0,0,0-.68,1.56V237.9a9.05,9.05,0,0,0,1.36,5.44,4.41,4.41,0,0,0,3.76,1.84,11,11,0,0,0,2.84-.28,9.46,9.46,0,0,0,1.68-.6l.84-.4a1.31,1.31,0,0,1,.48-.16.72.72,0,0,1,.64.44,2.44,2.44,0,0,1,.24,1.16c0,.38-.6,1-1.8,1.88a19.23,19.23,0,0,1-4.52,2.36,15.18,15.18,0,0,1-5.52,1C455.68,250.62,453.06,249.74,451.27,248Z"/><path d="M504.75,249.42a20.45,20.45,0,0,0-3.84-.88,5.49,5.49,0,0,0-2.88,1,2.08,2.08,0,0,1-1.12.56,1.72,1.72,0,0,1-1.08-.28.9.9,0,0,1-.36-.76,22.57,22.57,0,0,1,.44-2.84,24.3,24.3,0,0,0,.36-5.16L496,205.5a9.44,9.44,0,0,0-.68-3.88,3.34,3.34,0,0,0-2.44-1.88c-.64-.1-1-.53-1-1.28a1.2,1.2,0,0,1,.24-.72,1.06,1.06,0,0,1,.64-.4,77,77,0,0,0,12-3.92,3.77,3.77,0,0,1,1.12-.32c.59,0,.88.32.88,1,0,.38-.07,1.1-.2,2.16a24.21,24.21,0,0,0-.2,2.88v17.12c0,1.5.24,2.24.72,2.24a21.93,21.93,0,0,1,5.16-2.6,15.76,15.76,0,0,1,5.08-.92,13.62,13.62,0,0,1,7.52,2.16,15.25,15.25,0,0,1,5.32,6,18.12,18.12,0,0,1,2,8.44,20,20,0,0,1-2.44,10,17,17,0,0,1-6.88,6.76,21.11,21.11,0,0,1-10.2,2.4A32.27,32.27,0,0,1,504.75,249.42ZM519,243.3a22.61,22.61,0,0,0,1.88-9.72,22.36,22.36,0,0,0-2.08-9.84q-2.08-4.32-6-4.32a14,14,0,0,0-3.52.48,8.14,8.14,0,0,0-3,1.36v17a9.26,9.26,0,0,0,2.28,6.4,7,7,0,0,0,5.4,2.56Q517.15,247.26,519,243.3Z"/><path d="M544.27,248.46a15.9,15.9,0,0,1-6.16-6,16.64,16.64,0,0,1-2.24-8.6,18.7,18.7,0,0,1,2.52-9.44,19.34,19.34,0,0,1,6.8-7,18.51,18.51,0,0,1,18.36-.32A17.25,17.25,0,0,1,570,223.3a15.71,15.71,0,0,1,2.36,8.28,20.58,20.58,0,0,1-2.24,9.6,16.8,16.8,0,0,1-6.6,6.88,20.57,20.57,0,0,1-10.6,2.56A17.59,17.59,0,0,1,544.27,248.46Zm15.2-4.08q1.68-2.79,1.68-10.88A24.45,24.45,0,0,0,559,222.66c-1.41-2.85-3.27-4.28-5.56-4.28a5.66,5.66,0,0,0-4.16,1.68,8.87,8.87,0,0,0-1.88,4.4,43,43,0,0,0-.52,7.44,26.64,26.64,0,0,0,1,7.36,16.08,16.08,0,0,0,2.72,5.68,4.94,4.94,0,0,0,3.88,2.16A5.45,5.45,0,0,0,559.47,244.38Z"/><path d="M584.51,248.46a15.9,15.9,0,0,1-6.16-6,16.64,16.64,0,0,1-2.24-8.6,18.7,18.7,0,0,1,2.52-9.44,19.34,19.34,0,0,1,6.8-7,18.51,18.51,0,0,1,18.36-.32,17.25,17.25,0,0,1,6.44,6.16,15.71,15.71,0,0,1,2.36,8.28,20.58,20.58,0,0,1-2.24,9.6,16.8,16.8,0,0,1-6.6,6.88,20.57,20.57,0,0,1-10.6,2.56A17.59,17.59,0,0,1,584.51,248.46Zm15.2-4.08q1.68-2.79,1.68-10.88a24.45,24.45,0,0,0-2.12-10.84c-1.41-2.85-3.27-4.28-5.56-4.28a5.66,5.66,0,0,0-4.16,1.68,8.87,8.87,0,0,0-1.88,4.4,43,43,0,0,0-.52,7.44,26.64,26.64,0,0,0,1,7.36,16.08,16.08,0,0,0,2.72,5.68,4.94,4.94,0,0,0,3.88,2.16A5.45,5.45,0,0,0,599.71,244.38Z"/><path d="M614.51,248.62c0-.74.61-1.28,1.84-1.6a10.13,10.13,0,0,0,2.4-1.12,2.4,2.4,0,0,0,.64-2V205.5a9.77,9.77,0,0,0-.64-4,3.29,3.29,0,0,0-2.48-1.8c-.59-.1-.88-.5-.88-1.2s.27-1.09.8-1.2a77.89,77.89,0,0,0,10.4-3.28l1.84-.72a3.83,3.83,0,0,1,1-.24c.53,0,.8.32.8,1l-.16,1.68-.32,3.84.08,29.92q0,1,.72,1a2.31,2.31,0,0,0,1.28-.64,65.88,65.88,0,0,0,5.12-5,35.6,35.6,0,0,0,3.28-4l.44-.68a1.4,1.4,0,0,0,.28-.68c0-.32-.23-.61-.68-.88a5.24,5.24,0,0,0-1.88-.56c-.64-.1-1-.4-1-.88,0-.74.59-1.12,1.76-1.12h3.92q2.16,0,11.52-.72a.78.78,0,0,1,.88.88c0,.86-.61,1.42-1.84,1.68a25.66,25.66,0,0,0-6.88,3,36.26,36.26,0,0,0-4.48,2.92,45.62,45.62,0,0,0-4.16,3.48,1.22,1.22,0,0,0-.4.88,2,2,0,0,0,.48.88l3,4q4.56,6.24,7.76,9.84a14,14,0,0,0,3.12,2.56,20.49,20.49,0,0,0,3.36,1.76,5.55,5.55,0,0,0,.8.28,2.83,2.83,0,0,1,1,.52,1,1,0,0,1,.36.72c0,.75-.59,1.12-1.76,1.12q-3.6,0-9.84-.16L638,249.5a1.88,1.88,0,0,1-1.16-.32,1,1,0,0,1-.44-.8,1.15,1.15,0,0,1,.44-.92,4.69,4.69,0,0,1,1.32-.68c.85-.32,1.31-.74,1.36-1.28a4.83,4.83,0,0,0-1-1.76L630.75,233a.58.58,0,0,0-.4-.16c-.32,0-.48.19-.48.56V244a2.69,2.69,0,0,0,.56,1.88,4.84,4.84,0,0,0,1.84,1.08c1.12.43,1.68,1,1.68,1.6a1,1,0,0,1-.4.88,1.58,1.58,0,0,1-1,.32,35.09,35.09,0,0,1-4.32-.24c-1.6-.1-2.85-.16-3.76-.16s-2.13.06-3.84.16a40.52,40.52,0,0,1-4.48.24C615,249.74,614.51,249.37,614.51,248.62Z"/><path d="M87.28,345.46a.9.9,0,0,1-.44-.84c0-.74.61-1.28,1.84-1.6a10.13,10.13,0,0,0,2.4-1.12,2.32,2.32,0,0,0,.64-1.92V301.5a9.44,9.44,0,0,0-.68-3.88,3.41,3.41,0,0,0-2.52-1.88c-.54-.1-.8-.5-.8-1.2s.24-1.09.72-1.2a37.54,37.54,0,0,0,5.24-1.44q3.07-1,5.48-1.92l1.68-.64a2.64,2.64,0,0,1,1-.24c.53,0,.8.32.8,1,0,.43-.07,1.2-.2,2.32s-.23,2.19-.28,3.2v44.24a2.39,2.39,0,0,0,.6,1.88,4,4,0,0,0,1.4.8l1,.36a4.78,4.78,0,0,1,1.4.68,1.15,1.15,0,0,1,.44.92.92.92,0,0,1-.44.84,2.12,2.12,0,0,1-1.16.28c-1.12,0-2.64-.05-4.56-.16l-4.16-.08c-.86,0-2.14.06-3.84.16a40.65,40.65,0,0,1-4.48.24A2.1,2.1,0,0,1,87.28,345.46Z"/><path d="M113.08,344.42a6.86,6.86,0,0,1-2.4-5.24,6.43,6.43,0,0,1,1.64-4.52,15,15,0,0,1,5.16-3.32l7.12-3.12a4.8,4.8,0,0,0,2-1.28,4.15,4.15,0,0,0,.36-2.08l.08-4.56a6,6,0,0,0-.8-3.6,3,3,0,0,0-2.64-1.28,5.48,5.48,0,0,0-2,.44,5.08,5.08,0,0,0-1.64,1,2.55,2.55,0,0,0-.48,1.68,7.72,7.72,0,0,0,.08,1.16,9.43,9.43,0,0,1,.08,1.16c0,.54-.9,1.2-2.68,2a11.47,11.47,0,0,1-4.44,1.2,1.28,1.28,0,0,1-1-.48,1.79,1.79,0,0,1-.4-1.2,4.13,4.13,0,0,1,.88-2.48,17.48,17.48,0,0,1,2.88-2.88,31.47,31.47,0,0,1,7-4.32,16.82,16.82,0,0,1,6.56-1.76,8.85,8.85,0,0,1,6.8,2.76,10.1,10.1,0,0,1,2.48,7.32l-.4,16.16a5.68,5.68,0,0,0,.64,3.12,2,2,0,0,0,1.76,1.28,3.73,3.73,0,0,0,2.64-1,.69.69,0,0,1,.48-.24,1,1,0,0,1,.68.28.88.88,0,0,1,.28.6,3.92,3.92,0,0,1-1.44,2.48,9.26,9.26,0,0,1-6.72,3,7.63,7.63,0,0,1-4.08-1.08,11.23,11.23,0,0,1-3.36-3.48H128a20.3,20.3,0,0,1-4.76,3.52,10.06,10.06,0,0,1-4.52,1A8,8,0,0,1,113.08,344.42Zm13-4.2a3.8,3.8,0,0,0,.56-2.08l.24-5.76c0-.85-.27-1.28-.8-1.28a2,2,0,0,0-1,.32,10.34,10.34,0,0,0-3.56,2.4,5.5,5.5,0,0,0-1,3.6,4.38,4.38,0,0,0,.88,3,2.72,2.72,0,0,0,2.08,1A3.27,3.27,0,0,0,126,340.22Z"/><path d="M145.6,345.42a.92.92,0,0,1-.52-.8c0-.64.61-1.17,1.84-1.6a7.27,7.27,0,0,0,2.32-1,2.39,2.39,0,0,0,.72-2V321.66c0-2.66-.83-4.16-2.48-4.48-.59-.1-.88-.58-.88-1.44s.26-1.2.8-1.36a59.2,59.2,0,0,0,6.08-1.76,39.4,39.4,0,0,0,5.44-2.24,3.66,3.66,0,0,1,1.44-.64q.72,0,.72,1l-.16,1.6c-.16,1.92-.24,2.91-.24,3,0,.7,0,1.1.16,1.2a24.11,24.11,0,0,1,5.72-4.16,14.1,14.1,0,0,1,6.28-1.36,9,9,0,0,1,7.08,3.12,12.11,12.11,0,0,1,2.76,8.32V340a2.39,2.39,0,0,0,.72,2,7.17,7.17,0,0,0,2.32,1c1.06.38,1.6.91,1.6,1.6a1,1,0,0,1-.4.8,1.46,1.46,0,0,1-1,.32,41.33,41.33,0,0,1-4.56-.24c-1.71-.1-3-.16-3.92-.16s-2.22.06-3.92.16a38,38,0,0,1-4.48.24,1.43,1.43,0,0,1-1-.32,1,1,0,0,1-.4-.8c0-.69.53-1.22,1.6-1.6a6.18,6.18,0,0,0,2.16-1,2.59,2.59,0,0,0,.64-2V324.06a7.55,7.55,0,0,0-1.36-4.76,4.79,4.79,0,0,0-3.76-1.8,8.58,8.58,0,0,0-3,.52,14.23,14.23,0,0,0-2.88,1.56,1.91,1.91,0,0,0-.64,1.52V340a2.41,2.41,0,0,0,.64,2,7.6,7.6,0,0,0,2.24,1.08c1.06.38,1.6.91,1.6,1.6a1,1,0,0,1-.4.8,1.46,1.46,0,0,1-1,.32,35.09,35.09,0,0,1-4.32-.24c-1.71-.1-3-.16-3.84-.16s-2.27.06-4.08.16a42.16,42.16,0,0,1-4.64.24A1.94,1.94,0,0,1,145.6,345.42Z"/><path d="M231.4,340.78a.63.63,0,0,1,.79.8,2.45,2.45,0,0,1-.47,1.36c-.32.48-.62.72-.88.72a51.79,51.79,0,0,0-12.16,2.88,3.73,3.73,0,0,1-1.37.48c-.15,0-.38-.17-.67-.52a1.44,1.44,0,0,1-.45-.84,32.37,32.37,0,0,0,.41-4.24v-.48A12.83,12.83,0,0,1,206,346.62a14.43,14.43,0,0,1-7.88-2.24,15.4,15.4,0,0,1-5.56-6.08,17.83,17.83,0,0,1-2-8.4,19.39,19.39,0,0,1,2.4-9.64,17.27,17.27,0,0,1,6.76-6.72,20.08,20.08,0,0,1,10-2.44,19.59,19.59,0,0,1,5,.72l1,.24c.21,0,.32-.34.32-1V301.5a9,9,0,0,0-.69-4.12,3.48,3.48,0,0,0-2.43-1.64,1.13,1.13,0,0,1-1-1.2,1.05,1.05,0,0,1,.88-1.2q2.88-.63,6-1.64t5.24-1.88a8,8,0,0,1,1.92-.72c.58,0,.88.32.88,1a16,16,0,0,0-.2,1.88c-.08,1-.15,2.26-.2,3.64l-.4,40.32a13.44,13.44,0,0,0,.4,4A1.45,1.45,0,0,0,228,341l3.12-.24Zm-18.17-.28a7.33,7.33,0,0,0,2.81-1.8L216,321a4.71,4.71,0,0,0-1.08-2.8,9.14,9.14,0,0,0-2.72-2.4,6.42,6.42,0,0,0-3.24-1,5.12,5.12,0,0,0-3.57,1.56,10.94,10.94,0,0,0-2.63,4.52,21.16,21.16,0,0,0-1,6.8,20,20,0,0,0,1.16,7.2,10.88,10.88,0,0,0,3.08,4.64,6.32,6.32,0,0,0,4.16,1.6A8.64,8.64,0,0,0,213.23,340.5Z"/><path d="M235,345.46a.87.87,0,0,1-.4-.76c0-.8.48-1.33,1.44-1.6a8.38,8.38,0,0,0,3-1.08,2.2,2.2,0,0,0,.8-1.88V322.86A7.14,7.14,0,0,0,239,319a3.55,3.55,0,0,0-2.64-1.44,1,1,0,0,1-.72-.48,1.8,1.8,0,0,1-.24-1,1.49,1.49,0,0,1,.28-.88,1.11,1.11,0,0,1,.6-.48,31.06,31.06,0,0,0,6.36-1.76q2.76-1.11,6-2.72a4,4,0,0,1,1.6-.64,1.06,1.06,0,0,1,.76.28,1,1,0,0,1,.28.68l-.32,3a84.86,84.86,0,0,0-.72,8.8v17.68a2.1,2.1,0,0,0,.8,1.76,9.1,9.1,0,0,0,3,1.28,3.17,3.17,0,0,1,1.08.56,1.24,1.24,0,0,1,.36,1c0,.7-.4,1-1.2,1-1.12,0-2.75-.05-4.88-.16s-3.66-.16-4.56-.16-2.32.06-4.24.16q-2.4.24-4.8.24A1.46,1.46,0,0,1,235,345.46Zm5.28-41.24a6,6,0,0,1-1.84-4.4,6.19,6.19,0,0,1,1.84-4.56,6,6,0,0,1,4.4-1.84,6.37,6.37,0,0,1,4.6,1.84,6.15,6.15,0,0,1,1.88,4.56,5.94,5.94,0,0,1-1.88,4.4,6.33,6.33,0,0,1-4.6,1.84A6,6,0,0,1,240.28,304.22Z"/><path d="M258.72,345.42a.93.93,0,0,1-.53-.8c0-.64.62-1.17,1.84-1.6a7.07,7.07,0,0,0,2.32-1,2.36,2.36,0,0,0,.72-2V321.66c0-2.66-.82-4.16-2.47-4.48-.59-.1-.88-.58-.88-1.44s.26-1.2.8-1.36a59.2,59.2,0,0,0,6.08-1.76,38.71,38.71,0,0,0,5.43-2.24,3.74,3.74,0,0,1,1.45-.64c.48,0,.71.32.71,1l-.16,1.6c-.15,1.92-.23,2.91-.23,3,0,.7.05,1.1.16,1.2a24.11,24.11,0,0,1,5.72-4.16,14.1,14.1,0,0,1,6.28-1.36,9,9,0,0,1,7.07,3.12,12.07,12.07,0,0,1,2.77,8.32V340a2.36,2.36,0,0,0,.72,2,7.17,7.17,0,0,0,2.32,1c1.06.38,1.6.91,1.6,1.6a1,1,0,0,1-.41.8,1.43,1.43,0,0,1-1,.32,41.28,41.28,0,0,1-4.55-.24c-1.71-.1-3-.16-3.92-.16s-2.22.06-3.92.16a38,38,0,0,1-4.49.24,1.46,1.46,0,0,1-1-.32,1,1,0,0,1-.39-.8c0-.69.53-1.22,1.6-1.6a6.18,6.18,0,0,0,2.16-1,2.59,2.59,0,0,0,.63-2V324.06a7.55,7.55,0,0,0-1.35-4.76,4.79,4.79,0,0,0-3.77-1.8,8.66,8.66,0,0,0-3,.52,14.78,14.78,0,0,0-2.88,1.56,1.94,1.94,0,0,0-.63,1.52V340a2.45,2.45,0,0,0,.63,2,7.82,7.82,0,0,0,2.25,1.08c1.06.38,1.59.91,1.59,1.6a1,1,0,0,1-.39.8,1.46,1.46,0,0,1-1,.32,35.26,35.26,0,0,1-4.33-.24c-1.7-.1-3-.16-3.83-.16s-2.27.06-4.08.16a42.16,42.16,0,0,1-4.64.24A1.94,1.94,0,0,1,258.72,345.42Z"/><path d="M341.91,313.26a2.09,2.09,0,0,1,.36,1.28,3.92,3.92,0,0,1-.32,1.4,7.84,7.84,0,0,1-.72,1.48,1.34,1.34,0,0,1-1,.56H338a4.67,4.67,0,0,0-2.8.64,1.93,1.93,0,0,0-.36,1.08c0,.46,0,1.35,0,2.68a14.52,14.52,0,0,1-2.12,7.68A16,16,0,0,1,327,335.7a15,15,0,0,1-7.76,2.12,15.7,15.7,0,0,1-5.36-1,4.65,4.65,0,0,0-1.16,1.08,1.92,1.92,0,0,0-.44,1.08q0,1.29,2.4,1.92a57,57,0,0,0,9,1.12q8.64.64,12.56,2.64c2.62,1.34,3.92,3.26,3.92,5.76a14.34,14.34,0,0,1-3.12,8.56,24.5,24.5,0,0,1-8,7,20.17,20.17,0,0,1-9.88,2.72q-7.76,0-12.16-2.44t-4.4-6.68a10.42,10.42,0,0,1,.6-4,7.54,7.54,0,0,1,2.52-2.84c.86-.58,1.76-1.24,2.72-2s1.63-1.24,2-1.56q-5.67-2.24-5.68-7.28,0-1.75,2.16-3.12a47,47,0,0,0,4.24-3.36,14.69,14.69,0,0,1-4.76-4.68,11.35,11.35,0,0,1-1.8-6.2,11.81,11.81,0,0,1,2.24-7,15.26,15.26,0,0,1,6-4.88,18.45,18.45,0,0,1,8-1.76,27.55,27.55,0,0,1,6.08.88c1.5.32,2.64.54,3.44.64a34,34,0,0,0,6.4.64,26.22,26.22,0,0,0,2.64-.16l1.76-.08A1.1,1.1,0,0,1,341.91,313.26Zm-12.4,40.24a7.54,7.54,0,0,0-3.12-1.32,60.1,60.1,0,0,0-6.36-1,44.6,44.6,0,0,1-5.68-.8,12.4,12.4,0,0,0-3.48,3,6,6,0,0,0-1.16,3.6,6.67,6.67,0,0,0,2.72,5.44,10.87,10.87,0,0,0,7,2.16q5.61,0,7.84-2.16a10.53,10.53,0,0,0,2.36-3.24,8.52,8.52,0,0,0,.84-3.64A2.62,2.62,0,0,0,329.51,353.5Zm-5.4-22a15.7,15.7,0,0,0,1.52-7.52,13.62,13.62,0,0,0-1.64-7.12,4.83,4.83,0,0,0-4.2-2.72q-2.31,0-4,2.76a13.22,13.22,0,0,0-1.64,6.84,15.18,15.18,0,0,0,1.72,7.48c1.15,2.06,2.55,3.08,4.2,3.08S323.1,333.37,324.11,331.5Z"/><path d="M363,366.46l-.48-.32a.94.94,0,0,1-.48-.8,1.24,1.24,0,0,1,.44-1,3.7,3.7,0,0,1,1.4-.6,6.46,6.46,0,0,0,2.4-1.16,2.44,2.44,0,0,0,.64-1.88V322.38a5.21,5.21,0,0,0-.92-2.92,3.79,3.79,0,0,0-2.44-1.72,1.5,1.5,0,0,1-.72-.44,1.55,1.55,0,0,1-.24-1,1.24,1.24,0,0,1,.88-1.36,62,62,0,0,0,6.08-1.68A38.47,38.47,0,0,0,375,311.1a4.16,4.16,0,0,0,.68-.32,1.62,1.62,0,0,1,.68-.24q.72,0,.72,1l-.16,1.76-.24,2.88a1.69,1.69,0,0,0,.16,1,15.18,15.18,0,0,1,3-2.28,28.39,28.39,0,0,1,4.72-2.32,13.92,13.92,0,0,1,4.92-1,11.87,11.87,0,0,1,7.16,2.24,14.57,14.57,0,0,1,4.72,5.8A17.8,17.8,0,0,1,403,327.1a19.78,19.78,0,0,1-2.48,9.56,20.26,20.26,0,0,1-6.76,7.44,16.33,16.33,0,0,1-9.24,2.84,15,15,0,0,1-3.36-.48,18.34,18.34,0,0,1-3.52-1.2c-.21,0-.32.48-.32,1.44V360a2.8,2.8,0,0,0,1,2.32,9.43,9.43,0,0,0,3.32,1.44c1.18.38,1.76.91,1.76,1.6a.94.94,0,0,1-.44.8,1.49,1.49,0,0,1-.92.32c-1.7,0-3.41-.08-5.12-.24-2.24-.1-3.76-.16-4.56-.16s-2.26.06-4.08.16a42,42,0,0,1-4.64.24Zm24.4-24.56a10.83,10.83,0,0,0,3.08-4.32,18.74,18.74,0,0,0,1.32-7.6q0-7.59-2.52-10.32a7.35,7.35,0,0,0-5.4-2.72,7.45,7.45,0,0,0-2.92.64,9.06,9.06,0,0,0-2.48,1.56c-.66.62-1,1.14-1,1.56l-.16,13.12a12,12,0,0,0,.84,4.24,9.51,9.51,0,0,0,2.44,3.72,5.26,5.26,0,0,0,3.68,1.48A5.34,5.34,0,0,0,387.39,341.9Z"/><path d="M409.23,344.42a6.86,6.86,0,0,1-2.4-5.24,6.48,6.48,0,0,1,1.64-4.52,15.22,15.22,0,0,1,5.16-3.32l7.12-3.12a4.73,4.73,0,0,0,2-1.28,4.15,4.15,0,0,0,.36-2.08l.08-4.56a5.88,5.88,0,0,0-.8-3.6,3,3,0,0,0-2.64-1.28,5.48,5.48,0,0,0-2,.44,5.19,5.19,0,0,0-1.64,1,2.55,2.55,0,0,0-.48,1.68,9.3,9.3,0,0,0,.08,1.16,7.8,7.8,0,0,1,.08,1.16c0,.54-.89,1.2-2.68,2a11.38,11.38,0,0,1-4.44,1.2,1.3,1.3,0,0,1-1-.48,1.85,1.85,0,0,1-.4-1.2,4.2,4.2,0,0,1,.88-2.48,18.32,18.32,0,0,1,2.88-2.88,31.69,31.69,0,0,1,7-4.32,16.86,16.86,0,0,1,6.56-1.76,8.82,8.82,0,0,1,6.8,2.76,10,10,0,0,1,2.48,7.32l-.4,16.16a5.77,5.77,0,0,0,.64,3.12,2.06,2.06,0,0,0,1.76,1.28,3.7,3.7,0,0,0,2.64-1,.69.69,0,0,1,.48-.24.94.94,0,0,1,.68.28.84.84,0,0,1,.28.6,3.92,3.92,0,0,1-1.44,2.48,9.23,9.23,0,0,1-6.72,3,7.68,7.68,0,0,1-4.08-1.08,11.46,11.46,0,0,1-3.36-3.48h-.16a20.1,20.1,0,0,1-4.76,3.52,10,10,0,0,1-4.52,1A8,8,0,0,1,409.23,344.42Zm13-4.2a3.72,3.72,0,0,0,.56-2.08l.24-5.76c0-.85-.26-1.28-.8-1.28a2.11,2.11,0,0,0-1,.32,10.55,10.55,0,0,0-3.56,2.4,5.56,5.56,0,0,0-1,3.6,4.43,4.43,0,0,0,.88,3,2.74,2.74,0,0,0,2.08,1A3.24,3.24,0,0,0,422.19,340.22Z"/><path d="M479.67,313.26a2.09,2.09,0,0,1,.36,1.28,4.15,4.15,0,0,1-.32,1.4,7.84,7.84,0,0,1-.72,1.48,1.34,1.34,0,0,1-1,.56h-2.16a4.67,4.67,0,0,0-2.8.64,1.93,1.93,0,0,0-.36,1.08c0,.46,0,1.35,0,2.68a14.61,14.61,0,0,1-2.12,7.68,16,16,0,0,1-5.72,5.64,15,15,0,0,1-7.76,2.12,15.7,15.7,0,0,1-5.36-1,4.65,4.65,0,0,0-1.16,1.08,1.92,1.92,0,0,0-.44,1.08q0,1.29,2.4,1.92a57,57,0,0,0,9,1.12q8.64.64,12.56,2.64c2.62,1.34,3.92,3.26,3.92,5.76a14.34,14.34,0,0,1-3.12,8.56,24.5,24.5,0,0,1-8,7,20.17,20.17,0,0,1-9.88,2.72q-7.75,0-12.16-2.44t-4.4-6.68a10.42,10.42,0,0,1,.6-4,7.54,7.54,0,0,1,2.52-2.84c.86-.58,1.76-1.24,2.72-2s1.63-1.24,2-1.56q-5.67-2.24-5.68-7.28,0-1.75,2.16-3.12a48.58,48.58,0,0,0,4.24-3.36,14.69,14.69,0,0,1-4.76-4.68,11.35,11.35,0,0,1-1.8-6.2,11.81,11.81,0,0,1,2.24-7,15.19,15.19,0,0,1,6-4.88,18.45,18.45,0,0,1,8-1.76,27.55,27.55,0,0,1,6.08.88c1.49.32,2.64.54,3.44.64a34,34,0,0,0,6.4.64c.69,0,1.57,0,2.64-.16l1.76-.08A1.11,1.11,0,0,1,479.67,313.26Zm-12.4,40.24a7.54,7.54,0,0,0-3.12-1.32,60.1,60.1,0,0,0-6.36-1,44.6,44.6,0,0,1-5.68-.8,12.4,12.4,0,0,0-3.48,3,6,6,0,0,0-1.16,3.6,6.67,6.67,0,0,0,2.72,5.44,10.85,10.85,0,0,0,7,2.16c3.73,0,6.35-.72,7.84-2.16a10.7,10.7,0,0,0,2.36-3.24,8.52,8.52,0,0,0,.84-3.64A2.65,2.65,0,0,0,467.27,353.5Zm-5.4-22a15.82,15.82,0,0,0,1.52-7.52,13.62,13.62,0,0,0-1.64-7.12,4.83,4.83,0,0,0-4.2-2.72c-1.55,0-2.86.92-4,2.76a13.22,13.22,0,0,0-1.64,6.84,15.18,15.18,0,0,0,1.72,7.48c1.15,2.06,2.55,3.08,4.2,3.08S460.86,333.37,461.87,331.5Z"/><path d="M488.11,344.34a15.59,15.59,0,0,1-5.4-6.28,20.15,20.15,0,0,1-2-9,18.52,18.52,0,0,1,2.32-9.12,17.67,17.67,0,0,1,6.36-6.6,16.73,16.73,0,0,1,8.76-2.44,13.25,13.25,0,0,1,6.16,1.44,11,11,0,0,1,4.4,4,10.36,10.36,0,0,1,1.6,5.6,3.6,3.6,0,0,1-.6,2.32,2.3,2.3,0,0,1-1.88.72h-16a2,2,0,0,0-1.64.64,3.53,3.53,0,0,0-.52,2.16,11,11,0,0,0,3,7.8,9.77,9.77,0,0,0,7.44,3.16,10.24,10.24,0,0,0,4.16-.84,19.1,19.1,0,0,0,4-2.44,2.58,2.58,0,0,1,1.12-.64c.54,0,.8.35.8,1a5.67,5.67,0,0,1-.64,2.4,12.41,12.41,0,0,1-5,5.84,15.37,15.37,0,0,1-8.76,2.48A13.63,13.63,0,0,1,488.11,344.34Zm8.56-22.68c1.23,0,2.19,0,2.88-.08a8.45,8.45,0,0,0,1.84-.32,1.23,1.23,0,0,0,.64-.8,4,4,0,0,0,.24-1.44,4.6,4.6,0,0,0-1.48-3.48,5.1,5.1,0,0,0-3.64-1.4,6.16,6.16,0,0,0-4.48,2,5.9,5.9,0,0,0-1.92,4.36,1,1,0,0,0,1.12,1.12Z"/><path d="M125.43,102.06c0-2.46-2.37-5.06-6.49-5.06-4.62,0-9.7,3.4-10.48,10.19s3.46,9.92,7.75,9.92,6.53-1.68,8.82-3.92a3.88,3.88,0,0,0-5-1.08,5.1,5.1,0,0,1-2.65.64c-1.65,0-3.34-.74-3.34-3.84C124.62,107.86,125.43,104.52,125.43,102.06Zm-5.25.41c-.07.76-.37,2.06-5.73,2.79,1.13-4,3.29-4.33,4.28-4.33a1.4,1.4,0,0,1,1.47,1.33,1.48,1.48,0,0,1,0,.21Zm-17.94.66-2.47,7.77C99.7,110.3,98,97.4,98,97.4c-3.88,0-6,2.78-7,5.71,0,0-2.77,7.2-3,7.81,0-.56-.42-7.72-.42-7.72a6.34,6.34,0,0,0-6.16-5.78L84.6,117c4.07,0,6.26-2.78,7.41-5.71,0,0,2.45-6.35,2.54-6.64,0,.27,1.76,12.35,1.76,12.35,4.08,0,6.27-2.59,7.45-5.42l5.72-14.11C105.45,97.42,103.33,100.18,102.24,103.13ZM140.42,97c-2.52,0-4.44,1.37-6.06,3.39v0l1.45-11.74c-3.34,0-6.06,2.92-6.58,7.25l-2.53,21c1.92,0,4-.56,5.06-2a5.61,5.61,0,0,0,4.63,2.29c5.63,0,9.5-6.58,9.5-12.74C145.85,98.74,143.14,97,140.42,97ZM139.89,107c-.58,3.44-2.49,5.78-4.33,5.78a3.78,3.78,0,0,1-2.65-.83c.35-3,.57-4.86,1.25-6.46s2.28-4.13,4-4.13S140.49,103.59,139.89,107ZM160,97.42H156v-.2c.27-2.58.88-3.94,2.88-4.16a2.1,2.1,0,0,0,2.13-1.62c.12-.61.49-2.73.49-2.73-7.9,0-10.38,3.37-11,8.59l0,.12h-.09c-1.28,0-2.69,1.46-2.93,3.3l-.09.68H150l-2.21,18.33-.68,3.29.27,0c3.69-.14,6.06-3.07,6.58-7.32l1.72-14.32H157c1.21,0,2.63-1.22,2.88-3.25Zm20.45-.34c-4.54,0-8.83,3.35-10.14,8.62s.68,11.51,7.35,11.51,10.51-6.49,10.51-11.9S184.51,97.08,180.41,97.08Zm1.84,9.79c-.24,2.39-1.29,6-4.15,6s-2.48-4.24-2.21-6.25,1.51-5.22,4.09-5.22C182.3,101.42,182.52,104.18,182.25,106.87Zm28.31-3.74s-2.28,7.18-2.46,7.77c-.07-.6-1.74-13.5-1.74-13.5-3.88,0-6,2.78-7.05,5.71,0,0-2.76,7.2-3,7.81,0-.56-.42-7.72-.42-7.72a6.36,6.36,0,0,0-6.17-5.78L192.91,117c4.07,0,6.26-2.78,7.41-5.71,0,0,2.44-6.35,2.53-6.64,0,.27,1.75,12.35,1.75,12.35,4.09,0,6.27-2.59,7.46-5.42l5.72-14.11C213.77,97.42,211.64,100.18,210.56,103.13ZM163.67,88.71l-3.31,26.79h0l-.67,3.3.26,0h0c3.56,0,6.1-3.19,6.57-7.14l1.9-15.36C169,91.62,166.22,88.71,163.67,88.71Z"/></g></g></g></svg>