<?xml version="1.0" encoding="UTF-8" standalone="no"?>
<!DOCTYPE svg PUBLIC "-//W3C//DTD SVG 1.1//EN" "http://www.w3.org/Graphics/SVG/1.1/DTD/svg11.dtd">
<svg width="100%" height="100%" viewBox="0 0 511 511" version="1.1" xmlns="http://www.w3.org/2000/svg" xmlns:xlink="http://www.w3.org/1999/xlink" xml:space="preserve" xmlns:serif="http://www.serif.com/" style="fill-rule:evenodd;clip-rule:evenodd;stroke-linejoin:round;stroke-miterlimit:2;">
    <g transform="matrix(7.93455,0,0,7.93455,1.59449,1.59449)">
        <path d="M53,50.755C53,45.265 48.896,40.577 43.454,39.851L37.917,39.113C37.951,38.875 37.962,38.633 37.974,38.392C40.123,37.151 41.85,35.267 42.894,33L43,33C45.757,33 48,30.757 48,28L48,16.362L48,16L48,15L47.949,15C47.431,7.195 40.933,1 33,1L31,1C23.067,1 16.569,7.195 16.051,15L16,15L16,28C16,30.757 18.243,33 21,33L21.105,33C22.15,35.267 23.876,37.151 26.025,38.392C26.037,38.634 26.048,38.876 26.082,39.113L20.545,39.851C15.104,40.578 11,45.265 11,50.755L11,61L30,61L30,63L36,63L36,61L53,61L53,50.755ZM40.741,41.508L38.476,47.549L33.979,44.979L34.085,44.916C35.589,44.014 36.737,42.645 37.39,41.061L40.741,41.508ZM34.019,50.567C33.424,50.215 32.74,50 32,50C31.26,50 30.576,50.215 29.981,50.567L27.906,48.492L31.988,46.159L32,46.166L32.012,46.159L36.094,48.492L34.019,50.567ZM20,23.101C19.257,23.253 18.584,23.583 18,24.025L18,18.308C18.54,18.745 19.211,19.229 20,19.718L20,23.101ZM19.599,17L44.415,17C42.235,18.665 38.096,21 32.001,21C25.938,21 21.79,18.665 19.599,17ZM31.997,3.276C33.336,4.457 36.661,8.091 36.963,15L27.035,15C27.335,8.047 30.646,4.452 31.997,3.276ZM46,18.308L46,24.025C45.416,23.583 44.743,23.252 44,23.101L44,19.718C44.789,19.229 45.46,18.745 46,18.308ZM43.622,30.933C43.86,29.993 44,29.013 44,28L44,25.184C45.161,25.598 46,26.698 46,28C46,29.441 44.979,30.646 43.622,30.933ZM45.946,15L38.963,15C38.725,8.999 36.427,5.181 34.641,3.116C40.709,3.885 45.473,8.846 45.946,15ZM29.359,3.116C27.573,5.181 25.275,8.999 25.037,15L18.054,15C18.527,8.846 23.291,3.885 29.359,3.116ZM18,28C18,26.698 18.839,25.598 20,25.184L20,28C20,29.013 20.14,29.993 20.378,30.933C19.021,30.646 18,29.441 18,28ZM22,28L22,20.806C24.509,22.006 27.829,23 32,23C36.171,23 39.491,22.006 42,20.806L42,28C42,33.514 37.514,38 32,38C26.486,38 22,33.514 22,28ZM32,40C33.342,40 34.628,39.769 35.834,39.361C35.465,40.944 34.475,42.349 33.056,43.201L32,43.834L30.945,43.201C29.526,42.349 28.536,40.944 28.167,39.361C29.372,39.769 30.658,40 32,40ZM29.916,44.916L30.022,44.979L25.525,47.549L23.26,41.508L26.612,41.061C27.264,42.645 28.412,44.013 29.916,44.916ZM19,59L19,50L17,50L17,59L13,59L13,50.755C13,46.263 16.358,42.427 20.811,41.834L21.224,41.779L24.476,50.451L26.106,49.52L28.567,51.981C28.215,52.576 28,53.26 28,54C28,55.435 28.78,56.746 30,57.451L30,59L19,59ZM34,61L32,61L32,56.111L31.335,55.874C30.537,55.59 30,54.837 30,54C30,52.897 30.897,52 32,52C33.103,52 34,52.897 34,54L34,61ZM51,59L47,59L47,50L45,50L45,59L36,59L36,54C36,53.26 35.785,52.576 35.433,51.981L37.894,49.52L39.524,50.451L42.776,41.779L43.189,41.834C47.642,42.428 51,46.263 51,50.755L51,59Z" style="fill-rule:nonzero;"/>
        <rect x="30" y="11" width="4" height="2"/>
        <path d="M38,30L36,30C36,32.206 34.206,34 32,34C29.794,34 28,32.206 28,30L26,30C26,33.309 28.691,36 32,36C35.309,36 38,33.309 38,30Z" style="fill-rule:nonzero;"/>
        <circle cx="26" cy="24" r="1"/>
        <circle cx="38" cy="24" r="1"/>
    </g>
</svg>
