<?xml version="1.0" encoding="UTF-8" standalone="no"?>
<!DOCTYPE svg PUBLIC "-//W3C//DTD SVG 1.1//EN" "http://www.w3.org/Graphics/SVG/1.1/DTD/svg11.dtd">
<svg width="100%" height="100%" viewBox="0 0 512 512" version="1.1" xmlns="http://www.w3.org/2000/svg" xmlns:xlink="http://www.w3.org/1999/xlink" xml:space="preserve" xmlns:serif="http://www.serif.com/" style="fill-rule:evenodd;clip-rule:evenodd;stroke-linejoin:round;stroke-miterlimit:2;">
    <path d="M441.673,270.296C441.94,257.468 436.811,244.989 427.602,236.054L336.306,147.482C332.969,144.243 328.266,142.91 323.723,143.912C323.124,144.044 322.541,144.22 321.973,144.427L209.01,2.842C206.408,-0.418 201.656,-0.953 198.393,1.649C195.132,4.25 194.598,9.004 197.2,12.265L312.268,156.485L305.39,174.437L234.737,228.799C230.306,232.209 224.338,233.012 219.161,230.893L211.621,227.806C200.622,223.304 189.151,220.045 177.445,218.063L175.581,183.218C175.189,175.88 172.191,168.898 167.141,163.56L14.642,2.363C11.775,-0.668 6.994,-0.801 3.964,2.067C0.934,4.934 0.801,9.714 3.668,12.745L156.165,173.941C158.756,176.68 160.294,180.259 160.494,184.024L162.302,217.8C154.51,220.03 148.226,226.436 146.563,234.825L112.937,404.418C112.146,408.404 109.073,411.55 105.105,412.432L60.426,422.361C41.077,426.661 27.563,443.508 27.563,463.328L27.563,486.427C27.563,500.527 39.035,512 53.136,512L178.015,512C187.706,512 197.026,508.447 204.255,501.993L426.191,303.923C435.763,295.38 441.407,283.123 441.673,270.296ZM392.234,222.79L309.16,315.1C307.379,295.278 307.45,275.293 309.396,255.483L316.313,185.09C317.403,184.243 318.242,183.116 318.736,181.828L327.212,159.708L392.234,222.79ZM280.534,212.624L282.421,211.171L264.262,279.445C256.122,310.051 253.735,341.481 257.125,372.922L220.904,413.17C227.47,361.197 240.767,310.364 260.546,261.749L280.534,212.624ZM271.034,357.465C269.776,332.507 272.395,307.642 278.862,283.329L298.874,208.092L294.361,254.007C291.874,279.324 292.305,304.917 295.628,330.139L271.034,357.465ZM416.131,292.651L194.194,490.721C189.736,494.701 183.99,496.892 178.014,496.892L53.135,496.892C47.365,496.892 42.67,492.198 42.67,486.427L42.67,480.153L93.102,480.153C97.273,480.153 100.656,476.771 100.656,472.599C100.656,468.427 97.273,465.045 93.102,465.045L42.67,465.045L42.67,463.328C42.67,450.643 51.319,439.861 63.702,437.108L108.382,427.179C118.196,424.998 125.8,417.217 127.756,407.356L133.117,380.318L151.299,380.318C155.47,380.318 158.852,376.936 158.852,372.764C158.852,368.593 155.47,365.211 151.299,365.211L136.112,365.211L139.349,348.882L160.981,348.882C165.152,348.882 168.534,345.5 168.534,341.328C168.534,337.157 165.152,333.774 160.981,333.774L142.346,333.774L145.583,317.446L154.938,317.446C159.109,317.446 162.491,314.064 162.491,309.892C162.491,305.72 159.109,302.338 154.938,302.338L148.578,302.338L151.815,286.011L179.424,286.011C183.596,286.011 186.978,282.629 186.978,278.457C186.978,274.285 183.596,270.903 179.424,270.903L154.811,270.903L161.381,237.763C162.046,234.41 165.014,232.038 168.353,232.038C168.653,232.038 168.957,232.057 169.262,232.097C181.835,233.721 194.161,236.981 205.897,241.785L213.438,244.872C223.574,249.022 235.266,247.45 243.949,240.77L256.789,230.891L246.552,256.053C223.607,312.444 209.183,371.75 203.629,432.362L176.326,462.701C174.986,464.189 173.069,465.043 171.065,465.043L125.293,465.043C121.121,465.043 117.739,468.425 117.739,472.597C117.739,476.769 121.121,480.151 125.293,480.151L171.067,480.151C177.346,480.151 183.358,477.474 187.558,472.807L216.484,440.663L216.486,440.661L403.086,233.316L417.083,246.896C423.383,253.007 426.752,261.205 426.569,269.98C426.387,278.756 422.679,286.808 416.131,292.651Z" style="fill-rule:nonzero;"/>
    <path d="M351.152,311.999L338.124,325.614C335.241,328.629 335.346,333.41 338.359,336.294C339.824,337.695 341.703,338.39 343.581,338.39C345.571,338.39 347.557,337.61 349.04,336.059L362.068,322.444C364.952,319.429 364.847,314.648 361.833,311.764C358.818,308.878 354.037,308.984 351.152,311.999Z" style="fill-rule:nonzero;"/>
    <path d="M397.259,263.813L373.59,288.549C370.707,291.564 370.811,296.345 373.825,299.229C375.289,300.63 377.169,301.325 379.047,301.325C381.036,301.325 383.023,300.545 384.506,298.993L408.175,274.257C411.058,271.243 410.954,266.462 407.94,263.577C404.923,260.693 400.142,260.798 397.259,263.813Z" style="fill-rule:nonzero;"/>
    <path d="M180.432,380.319L188.117,380.319C192.289,380.319 195.671,376.937 195.671,372.765C195.671,368.594 192.289,365.212 188.117,365.212L180.432,365.212C176.261,365.212 172.878,368.594 172.878,372.765C172.878,376.937 176.26,380.319 180.432,380.319Z" style="fill-rule:nonzero;"/>
    <path d="M184.461,317.447L193.902,317.447C198.074,317.447 201.456,314.065 201.456,309.893C201.456,305.721 198.074,302.339 193.902,302.339L184.461,302.339C180.289,302.339 176.907,305.721 176.907,309.893C176.907,314.065 180.288,317.447 184.461,317.447Z" style="fill-rule:nonzero;"/>
    <path d="M291.083,60.683L335.562,60.683C339.735,60.683 343.116,57.3 343.116,53.129C343.116,48.957 339.735,45.575 335.562,45.575L291.083,45.575C286.91,45.575 283.529,48.957 283.529,53.129C283.529,57.3 286.91,60.683 291.083,60.683Z" style="fill-rule:nonzero;"/>
    <path d="M372.705,60.683L384.17,60.683C388.342,60.683 391.724,57.3 391.724,53.129C391.724,48.957 388.342,45.575 384.17,45.575L372.705,45.575C368.532,45.575 365.151,48.957 365.151,53.129C365.151,57.3 368.532,60.683 372.705,60.683Z" style="fill-rule:nonzero;"/>
    <path d="M456.838,111.709C456.838,107.538 453.457,104.156 449.284,104.156L366.286,104.156C362.113,104.156 358.732,107.538 358.732,111.709C358.732,115.881 362.113,119.263 366.286,119.263L449.284,119.263C453.457,119.263 456.838,115.881 456.838,111.709Z" style="fill-rule:nonzero;"/>
    <path d="M502.845,329.419L457.448,329.419C453.275,329.419 449.894,332.802 449.894,336.973C449.894,341.145 453.275,344.527 457.448,344.527L502.845,344.527C507.017,344.527 510.399,341.145 510.399,336.973C510.399,332.802 507.016,329.419 502.845,329.419Z" style="fill-rule:nonzero;"/>
    <path d="M395.633,412.876L350.098,412.876C345.925,412.876 342.544,416.258 342.544,420.43C342.544,424.602 345.925,427.984 350.098,427.984L395.633,427.984C399.806,427.984 403.187,424.602 403.187,420.43C403.187,416.258 399.805,412.876 395.633,412.876Z" style="fill-rule:nonzero;"/>
    <path d="M439.654,412.876L429.108,412.876C424.935,412.876 421.554,416.258 421.554,420.43C421.554,424.602 424.935,427.984 429.108,427.984L439.654,427.984C443.827,427.984 447.208,424.602 447.208,420.43C447.208,416.258 443.826,412.876 439.654,412.876Z" style="fill-rule:nonzero;"/>
</svg>
